<svg width="484" height="69" viewBox="0 0 484 69" fill="none" xmlns="http://www.w3.org/2000/svg">
<path d="M63.8079 5.54545V23H60.6204L53.0266 12.0142H52.8988V23H49.2085V5.54545H52.4471L59.9812 16.5227H60.1346V5.54545H63.8079ZM72.7546 23.2557C71.408 23.2557 70.2489 22.983 69.2773 22.4375C68.3114 21.8864 67.5671 21.108 67.0444 20.1023C66.5217 19.0909 66.2603 17.8949 66.2603 16.5142C66.2603 15.1676 66.5217 13.9858 67.0444 12.9688C67.5671 11.9517 68.3029 11.1591 69.2518 10.5909C70.2063 10.0227 71.3256 9.73864 72.6097 9.73864C73.4734 9.73864 74.2773 9.87784 75.0217 10.1562C75.7717 10.429 76.4251 10.8409 76.9819 11.392C77.5444 11.9432 77.9819 12.6364 78.2944 13.4716C78.6069 14.3011 78.7631 15.2727 78.7631 16.3864V17.3835H67.7092V15.1335H75.3455C75.3455 14.6108 75.2319 14.1477 75.0046 13.7443C74.7773 13.3409 74.462 13.0256 74.0586 12.7983C73.6609 12.5653 73.1978 12.4489 72.6694 12.4489C72.1183 12.4489 71.6296 12.5767 71.2035 12.8324C70.783 13.0824 70.4535 13.4205 70.2148 13.8466C69.9762 14.267 69.854 14.7358 69.8484 15.2528V17.392C69.8484 18.0398 69.9677 18.5994 70.2063 19.071C70.4506 19.5426 70.7944 19.9062 71.2376 20.1619C71.6808 20.4176 72.2063 20.5455 72.8143 20.5455C73.2177 20.5455 73.587 20.4886 73.9222 20.375C74.2575 20.2614 74.5444 20.0909 74.783 19.8636C75.0217 19.6364 75.2035 19.358 75.3285 19.0284L78.6864 19.25C78.516 20.0568 78.1665 20.7614 77.6381 21.3636C77.1154 21.9602 76.4393 22.4261 75.6097 22.7614C74.7859 23.0909 73.8342 23.2557 72.7546 23.2557ZM84.7631 15.4318V23H81.1325V9.90909H84.5927V12.2188H84.7461C85.0359 11.4574 85.5217 10.8551 86.2035 10.4119C86.8853 9.96307 87.712 9.73864 88.6836 9.73864C89.5927 9.73864 90.3853 9.9375 91.0614 10.3352C91.7376 10.733 92.2631 11.3011 92.6381 12.0398C93.0131 12.7727 93.2006 13.6477 93.2006 14.6648V23H89.57V15.3125C89.5756 14.5114 89.3711 13.8864 88.9563 13.4375C88.5415 12.983 87.9705 12.7557 87.2433 12.7557C86.7546 12.7557 86.3228 12.8608 85.9478 13.071C85.5785 13.2812 85.2887 13.5881 85.0785 13.9915C84.8739 14.3892 84.7688 14.8693 84.7631 15.4318ZM99.6928 15.4318V23H96.0621V5.54545H99.5906V12.2188H99.744C100.039 11.446 100.517 10.8409 101.176 10.4034C101.835 9.96023 102.662 9.73864 103.656 9.73864C104.565 9.73864 105.358 9.9375 106.034 10.3352C106.716 10.7273 107.244 11.2926 107.619 12.0312C108 12.7642 108.187 13.642 108.181 14.6648V23H104.551V15.3125C104.556 14.5057 104.352 13.8778 103.937 13.429C103.528 12.9801 102.954 12.7557 102.216 12.7557C101.721 12.7557 101.284 12.8608 100.903 13.071C100.528 13.2812 100.233 13.5881 100.017 13.9915C99.8065 14.3892 99.6985 14.8693 99.6928 15.4318ZM119.434 17.4261V9.90909H123.064V23H119.578V20.6222H119.442C119.147 21.3892 118.655 22.0057 117.968 22.4716C117.286 22.9375 116.453 23.1705 115.471 23.1705C114.596 23.1705 113.826 22.9716 113.161 22.5739C112.496 22.1761 111.976 21.6108 111.601 20.8778C111.232 20.1449 111.044 19.267 111.039 18.2443V9.90909H114.669V17.5966C114.675 18.3693 114.882 18.9801 115.292 19.429C115.701 19.8778 116.249 20.1023 116.936 20.1023C117.374 20.1023 117.783 20.0028 118.164 19.804C118.544 19.5994 118.851 19.2983 119.084 18.9006C119.323 18.5028 119.439 18.0114 119.434 17.4261ZM125.968 23V9.90909H129.429V12.2188H129.582C129.855 11.4517 130.309 10.8466 130.946 10.4034C131.582 9.96023 132.343 9.73864 133.23 9.73864C134.127 9.73864 134.892 9.96307 135.522 10.4119C136.153 10.8551 136.574 11.4574 136.784 12.2188H136.92C137.187 11.4688 137.67 10.8693 138.369 10.4205C139.074 9.96591 139.906 9.73864 140.866 9.73864C142.088 9.73864 143.079 10.1278 143.841 10.9062C144.608 11.679 144.991 12.7756 144.991 14.196V23H141.369V14.9119C141.369 14.1847 141.176 13.6392 140.789 13.2756C140.403 12.9119 139.92 12.7301 139.341 12.7301C138.681 12.7301 138.167 12.9403 137.798 13.3608C137.429 13.7756 137.244 14.3239 137.244 15.0057V23H133.724V14.8352C133.724 14.1932 133.539 13.6818 133.17 13.3011C132.806 12.9205 132.326 12.7301 131.73 12.7301C131.326 12.7301 130.963 12.8324 130.639 13.0369C130.321 13.2358 130.068 13.517 129.88 13.8807C129.693 14.2386 129.599 14.6591 129.599 15.142V23H125.968ZM151.592 23.2472C150.757 23.2472 150.012 23.1023 149.359 22.8125C148.706 22.517 148.189 22.0824 147.808 21.5085C147.433 20.929 147.245 20.2074 147.245 19.3438C147.245 18.6165 147.379 18.0057 147.646 17.5114C147.913 17.017 148.277 16.6193 148.737 16.3182C149.197 16.017 149.72 15.7898 150.305 15.6364C150.896 15.483 151.515 15.375 152.163 15.3125C152.924 15.233 153.538 15.1591 154.004 15.0909C154.47 15.017 154.808 14.9091 155.018 14.767C155.228 14.625 155.333 14.4148 155.333 14.1364V14.0852C155.333 13.5455 155.163 13.1278 154.822 12.8324C154.487 12.5369 154.01 12.3892 153.39 12.3892C152.737 12.3892 152.217 12.5341 151.831 12.8239C151.444 13.108 151.189 13.4659 151.064 13.8977L147.706 13.625C147.876 12.8295 148.211 12.142 148.711 11.5625C149.211 10.9773 149.856 10.5284 150.646 10.2159C151.441 9.89773 152.362 9.73864 153.407 9.73864C154.135 9.73864 154.831 9.82386 155.495 9.99432C156.166 10.1648 156.76 10.429 157.277 10.7869C157.799 11.1449 158.211 11.6051 158.512 12.1676C158.814 12.7244 158.964 13.392 158.964 14.1705V23H155.521V21.1847H155.419C155.208 21.5938 154.927 21.9545 154.575 22.267C154.223 22.5739 153.799 22.8153 153.305 22.9915C152.811 23.1619 152.24 23.2472 151.592 23.2472ZM152.632 20.7415C153.166 20.7415 153.637 20.6364 154.047 20.4261C154.456 20.2102 154.777 19.9205 155.01 19.5568C155.243 19.1932 155.359 18.7812 155.359 18.321V16.9318C155.245 17.0057 155.089 17.0739 154.89 17.1364C154.697 17.1932 154.478 17.2472 154.234 17.2983C153.99 17.3437 153.745 17.3864 153.501 17.4261C153.257 17.4602 153.035 17.4915 152.836 17.5199C152.41 17.5824 152.038 17.6818 151.72 17.8182C151.402 17.9545 151.154 18.1392 150.978 18.3722C150.802 18.5994 150.714 18.8835 150.714 19.2244C150.714 19.7188 150.893 20.0966 151.251 20.358C151.615 20.6136 152.075 20.7415 152.632 20.7415ZM167.336 23V9.90909H170.796V12.2188H170.949C171.222 11.4517 171.676 10.8466 172.313 10.4034C172.949 9.96023 173.711 9.73864 174.597 9.73864C175.495 9.73864 176.259 9.96307 176.89 10.4119C177.52 10.8551 177.941 11.4574 178.151 12.2188H178.287C178.554 11.4688 179.037 10.8693 179.736 10.4205C180.441 9.96591 181.273 9.73864 182.233 9.73864C183.455 9.73864 184.446 10.1278 185.208 10.9062C185.975 11.679 186.358 12.7756 186.358 14.196V23H182.736V14.9119C182.736 14.1847 182.543 13.6392 182.157 13.2756C181.77 12.9119 181.287 12.7301 180.708 12.7301C180.049 12.7301 179.534 12.9403 179.165 13.3608C178.796 13.7756 178.611 14.3239 178.611 15.0057V23H175.091V14.8352C175.091 14.1932 174.907 13.6818 174.537 13.3011C174.174 12.9205 173.694 12.7301 173.097 12.7301C172.694 12.7301 172.33 12.8324 172.006 13.0369C171.688 13.2358 171.435 13.517 171.248 13.8807C171.06 14.2386 170.966 14.6591 170.966 15.142V23H167.336ZM195.192 23.2557C193.846 23.2557 192.686 22.983 191.715 22.4375C190.749 21.8864 190.005 21.108 189.482 20.1023C188.959 19.0909 188.698 17.8949 188.698 16.5142C188.698 15.1676 188.959 13.9858 189.482 12.9688C190.005 11.9517 190.74 11.1591 191.689 10.5909C192.644 10.0227 193.763 9.73864 195.047 9.73864C195.911 9.73864 196.715 9.87784 197.459 10.1562C198.209 10.429 198.863 10.8409 199.419 11.392C199.982 11.9432 200.419 12.6364 200.732 13.4716C201.044 14.3011 201.201 15.2727 201.201 16.3864V17.3835H190.147V15.1335H197.783C197.783 14.6108 197.669 14.1477 197.442 13.7443C197.215 13.3409 196.9 13.0256 196.496 12.7983C196.098 12.5653 195.635 12.4489 195.107 12.4489C194.556 12.4489 194.067 12.5767 193.641 12.8324C193.221 13.0824 192.891 13.4205 192.652 13.8466C192.414 14.267 192.292 14.7358 192.286 15.2528V17.392C192.286 18.0398 192.405 18.5994 192.644 19.071C192.888 19.5426 193.232 19.9062 193.675 20.1619C194.118 20.4176 194.644 20.5455 195.252 20.5455C195.655 20.5455 196.025 20.4886 196.36 20.375C196.695 20.2614 196.982 20.0909 197.221 19.8636C197.459 19.6364 197.641 19.358 197.766 19.0284L201.124 19.25C200.953 20.0568 200.604 20.7614 200.076 21.3636C199.553 21.9602 198.877 22.4261 198.047 22.7614C197.223 23.0909 196.272 23.2557 195.192 23.2557ZM207.201 15.4318V23H203.57V9.90909H207.03V12.2188H207.184C207.473 11.4574 207.959 10.8551 208.641 10.4119C209.323 9.96307 210.15 9.73864 211.121 9.73864C212.03 9.73864 212.823 9.9375 213.499 10.3352C214.175 10.733 214.701 11.3011 215.076 12.0398C215.451 12.7727 215.638 13.6477 215.638 14.6648V23H212.007V15.3125C212.013 14.5114 211.809 13.8864 211.394 13.4375C210.979 12.983 210.408 12.7557 209.681 12.7557C209.192 12.7557 208.76 12.8608 208.385 13.071C208.016 13.2812 207.726 13.5881 207.516 13.9915C207.311 14.3892 207.206 14.8693 207.201 15.4318ZM229.392 13.642L226.068 13.8466C226.011 13.5625 225.889 13.3068 225.701 13.0795C225.514 12.8466 225.267 12.6619 224.96 12.5256C224.659 12.3835 224.298 12.3125 223.877 12.3125C223.315 12.3125 222.841 12.4318 222.454 12.6705C222.068 12.9034 221.875 13.2159 221.875 13.608C221.875 13.9205 222 14.1847 222.25 14.4006C222.5 14.6165 222.929 14.7898 223.537 14.9205L225.906 15.3977C227.179 15.6591 228.127 16.0795 228.752 16.6591C229.377 17.2386 229.69 18 229.69 18.9432C229.69 19.8011 229.437 20.554 228.931 21.2017C228.431 21.8494 227.744 22.3551 226.869 22.7188C226 23.0767 224.997 23.2557 223.86 23.2557C222.127 23.2557 220.747 22.8949 219.718 22.1733C218.696 21.446 218.096 20.4574 217.92 19.2074L221.491 19.0199C221.599 19.5483 221.86 19.9517 222.275 20.2301C222.69 20.5028 223.221 20.6392 223.869 20.6392C224.505 20.6392 225.017 20.517 225.403 20.2727C225.795 20.0227 225.994 19.7017 226 19.3097C225.994 18.9801 225.855 18.7102 225.582 18.5C225.309 18.2841 224.889 18.1193 224.321 18.0057L222.054 17.554C220.775 17.2983 219.824 16.8551 219.199 16.2244C218.579 15.5937 218.27 14.7898 218.27 13.8125C218.27 12.9716 218.497 12.2472 218.951 11.6392C219.412 11.0312 220.056 10.5625 220.886 10.233C221.721 9.90341 222.699 9.73864 223.818 9.73864C225.471 9.73864 226.772 10.0881 227.721 10.7869C228.676 11.4858 229.233 12.4375 229.392 13.642ZM235.709 23.2472C234.874 23.2472 234.13 23.1023 233.476 22.8125C232.823 22.517 232.306 22.0824 231.925 21.5085C231.55 20.929 231.363 20.2074 231.363 19.3438C231.363 18.6165 231.496 18.0057 231.763 17.5114C232.03 17.017 232.394 16.6193 232.854 16.3182C233.314 16.017 233.837 15.7898 234.422 15.6364C235.013 15.483 235.632 15.375 236.28 15.3125C237.042 15.233 237.655 15.1591 238.121 15.0909C238.587 15.017 238.925 14.9091 239.135 14.767C239.346 14.625 239.451 14.4148 239.451 14.1364V14.0852C239.451 13.5455 239.28 13.1278 238.939 12.8324C238.604 12.5369 238.127 12.3892 237.507 12.3892C236.854 12.3892 236.334 12.5341 235.948 12.8239C235.561 13.108 235.306 13.4659 235.181 13.8977L231.823 13.625C231.993 12.8295 232.328 12.142 232.828 11.5625C233.328 10.9773 233.973 10.5284 234.763 10.2159C235.559 9.89773 236.479 9.73864 237.525 9.73864C238.252 9.73864 238.948 9.82386 239.613 9.99432C240.283 10.1648 240.877 10.429 241.394 10.7869C241.917 11.1449 242.328 11.6051 242.63 12.1676C242.931 12.7244 243.081 13.392 243.081 14.1705V23H239.638V21.1847H239.536C239.326 21.5938 239.044 21.9545 238.692 22.267C238.34 22.5739 237.917 22.8153 237.422 22.9915C236.928 23.1619 236.357 23.2472 235.709 23.2472ZM236.749 20.7415C237.283 20.7415 237.755 20.6364 238.164 20.4261C238.573 20.2102 238.894 19.9205 239.127 19.5568C239.36 19.1932 239.476 18.7812 239.476 18.321V16.9318C239.363 17.0057 239.206 17.0739 239.007 17.1364C238.814 17.1932 238.596 17.2472 238.351 17.2983C238.107 17.3437 237.863 17.3864 237.618 17.4261C237.374 17.4602 237.152 17.4915 236.953 17.5199C236.527 17.5824 236.155 17.6818 235.837 17.8182C235.519 17.9545 235.272 18.1392 235.096 18.3722C234.919 18.5994 234.831 18.8835 234.831 19.2244C234.831 19.7188 235.01 20.0966 235.368 20.358C235.732 20.6136 236.192 20.7415 236.749 20.7415ZM251.796 28.1818C250.62 28.1818 249.611 28.0199 248.77 27.696C247.935 27.3778 247.27 26.9432 246.776 26.392C246.282 25.8409 245.961 25.2216 245.813 24.5341L249.171 24.0824C249.273 24.3438 249.435 24.5881 249.657 24.8153C249.878 25.0426 250.171 25.2244 250.534 25.3608C250.904 25.5028 251.353 25.5739 251.881 25.5739C252.671 25.5739 253.321 25.3807 253.833 24.9943C254.35 24.6136 254.608 23.9744 254.608 23.0767V20.6818H254.455C254.296 21.0455 254.057 21.3892 253.739 21.7131C253.421 22.0369 253.012 22.3011 252.512 22.5057C252.012 22.7102 251.415 22.8125 250.722 22.8125C249.739 22.8125 248.844 22.5852 248.037 22.1307C247.236 21.6705 246.597 20.9687 246.12 20.0256C245.648 19.0767 245.412 17.8778 245.412 16.429C245.412 14.946 245.654 13.7074 246.137 12.7131C246.62 11.7187 247.262 10.9744 248.063 10.4801C248.87 9.9858 249.753 9.73864 250.713 9.73864C251.446 9.73864 252.06 9.86364 252.554 10.1136C253.049 10.358 253.446 10.6648 253.748 11.0341C254.054 11.3977 254.29 11.7557 254.455 12.108H254.591V9.90909H258.196V23.1278C258.196 24.2415 257.924 25.1733 257.378 25.9233C256.833 26.6733 256.077 27.2358 255.111 27.6108C254.151 27.9915 253.046 28.1818 251.796 28.1818ZM251.873 20.0852C252.458 20.0852 252.952 19.9403 253.355 19.6506C253.765 19.3551 254.077 18.9347 254.293 18.3892C254.515 17.8381 254.625 17.179 254.625 16.4119C254.625 15.6449 254.517 14.9801 254.301 14.4176C254.086 13.8494 253.773 13.4091 253.364 13.0966C252.955 12.7841 252.458 12.6278 251.873 12.6278C251.276 12.6278 250.773 12.7898 250.364 13.1136C249.955 13.4318 249.645 13.875 249.435 14.4432C249.225 15.0114 249.12 15.6676 249.12 16.4119C249.12 17.1676 249.225 17.821 249.435 18.3722C249.651 18.9176 249.961 19.3409 250.364 19.642C250.773 19.9375 251.276 20.0852 251.873 20.0852ZM267.051 23.2557C265.705 23.2557 264.546 22.983 263.574 22.4375C262.608 21.8864 261.864 21.108 261.341 20.1023C260.819 19.0909 260.557 17.8949 260.557 16.5142C260.557 15.1676 260.819 13.9858 261.341 12.9688C261.864 11.9517 262.6 11.1591 263.549 10.5909C264.503 10.0227 265.623 9.73864 266.907 9.73864C267.77 9.73864 268.574 9.87784 269.319 10.1562C270.069 10.429 270.722 10.8409 271.279 11.392C271.841 11.9432 272.279 12.6364 272.591 13.4716C272.904 14.3011 273.06 15.2727 273.06 16.3864V17.3835H262.006V15.1335H269.642C269.642 14.6108 269.529 14.1477 269.301 13.7443C269.074 13.3409 268.759 13.0256 268.355 12.7983C267.958 12.5653 267.495 12.4489 266.966 12.4489C266.415 12.4489 265.926 12.5767 265.5 12.8324C265.08 13.0824 264.75 13.4205 264.512 13.8466C264.273 14.267 264.151 14.7358 264.145 15.2528V17.392C264.145 18.0398 264.265 18.5994 264.503 19.071C264.748 19.5426 265.091 19.9062 265.534 20.1619C265.978 20.4176 266.503 20.5455 267.111 20.5455C267.515 20.5455 267.884 20.4886 268.219 20.375C268.554 20.2614 268.841 20.0909 269.08 19.8636C269.319 19.6364 269.5 19.358 269.625 19.0284L272.983 19.25C272.813 20.0568 272.463 20.7614 271.935 21.3636C271.412 21.9602 270.736 22.4261 269.907 22.7614C269.083 23.0909 268.131 23.2557 267.051 23.2557ZM275.429 23V9.90909H278.89V12.2188H279.043C279.316 11.4517 279.77 10.8466 280.407 10.4034C281.043 9.96023 281.804 9.73864 282.691 9.73864C283.588 9.73864 284.353 9.96307 284.983 10.4119C285.614 10.8551 286.034 11.4574 286.245 12.2188H286.381C286.648 11.4688 287.131 10.8693 287.83 10.4205C288.534 9.96591 289.367 9.73864 290.327 9.73864C291.549 9.73864 292.54 10.1278 293.301 10.9062C294.069 11.679 294.452 12.7756 294.452 14.196V23H290.83V14.9119C290.83 14.1847 290.637 13.6392 290.25 13.2756C289.864 12.9119 289.381 12.7301 288.801 12.7301C288.142 12.7301 287.628 12.9403 287.259 13.3608C286.89 13.7756 286.705 14.3239 286.705 15.0057V23H283.185V14.8352C283.185 14.1932 283 13.6818 282.631 13.3011C282.267 12.9205 281.787 12.7301 281.191 12.7301C280.787 12.7301 280.424 12.8324 280.1 13.0369C279.782 13.2358 279.529 13.517 279.341 13.8807C279.154 14.2386 279.06 14.6591 279.06 15.142V23H275.429ZM308.841 23.2557C307.494 23.2557 306.335 22.983 305.363 22.4375C304.397 21.8864 303.653 21.108 303.13 20.1023C302.608 19.0909 302.346 17.8949 302.346 16.5142C302.346 15.1676 302.608 13.9858 303.13 12.9688C303.653 11.9517 304.389 11.1591 305.338 10.5909C306.292 10.0227 307.412 9.73864 308.696 9.73864C309.559 9.73864 310.363 9.87784 311.108 10.1562C311.858 10.429 312.511 10.8409 313.068 11.392C313.63 11.9432 314.068 12.6364 314.38 13.4716C314.693 14.3011 314.849 15.2727 314.849 16.3864V17.3835H303.795V15.1335H311.431C311.431 14.6108 311.318 14.1477 311.091 13.7443C310.863 13.3409 310.548 13.0256 310.145 12.7983C309.747 12.5653 309.284 12.4489 308.755 12.4489C308.204 12.4489 307.716 12.5767 307.289 12.8324C306.869 13.0824 306.539 13.4205 306.301 13.8466C306.062 14.267 305.94 14.7358 305.934 15.2528V17.392C305.934 18.0398 306.054 18.5994 306.292 19.071C306.537 19.5426 306.88 19.9062 307.324 20.1619C307.767 20.4176 308.292 20.5455 308.9 20.5455C309.304 20.5455 309.673 20.4886 310.008 20.375C310.343 20.2614 310.63 20.0909 310.869 19.8636C311.108 19.6364 311.289 19.358 311.414 19.0284L314.772 19.25C314.602 20.0568 314.252 20.7614 313.724 21.3636C313.201 21.9602 312.525 22.4261 311.696 22.7614C310.872 23.0909 309.92 23.2557 308.841 23.2557ZM320.849 15.4318V23H317.218V9.90909H320.679V12.2188H320.832C321.122 11.4574 321.608 10.8551 322.289 10.4119C322.971 9.96307 323.798 9.73864 324.77 9.73864C325.679 9.73864 326.471 9.9375 327.147 10.3352C327.824 10.733 328.349 11.3011 328.724 12.0398C329.099 12.7727 329.287 13.6477 329.287 14.6648V23H325.656V15.3125C325.662 14.5114 325.457 13.8864 325.042 13.4375C324.627 12.983 324.056 12.7557 323.329 12.7557C322.841 12.7557 322.409 12.8608 322.034 13.071C321.664 13.2812 321.375 13.5881 321.164 13.9915C320.96 14.3892 320.855 14.8693 320.849 15.4318ZM338.063 23.2557C336.722 23.2557 335.569 22.9716 334.603 22.4034C333.642 21.8295 332.904 21.0341 332.387 20.017C331.875 19 331.62 17.8295 331.62 16.5057C331.62 15.1648 331.878 13.9886 332.395 12.9773C332.918 11.9602 333.659 11.1676 334.62 10.5994C335.58 10.0256 336.722 9.73864 338.046 9.73864C339.188 9.73864 340.188 9.94602 341.046 10.3608C341.904 10.7756 342.583 11.358 343.083 12.108C343.583 12.858 343.858 13.7386 343.909 14.75H340.483C340.387 14.0966 340.131 13.571 339.716 13.1733C339.307 12.7699 338.77 12.5682 338.105 12.5682C337.543 12.5682 337.051 12.7216 336.631 13.0284C336.216 13.3295 335.892 13.7699 335.659 14.3494C335.426 14.929 335.31 15.6307 335.31 16.4545C335.31 17.2898 335.424 18 335.651 18.5852C335.884 19.1705 336.211 19.6165 336.631 19.9233C337.051 20.2301 337.543 20.3835 338.105 20.3835C338.52 20.3835 338.892 20.2983 339.222 20.1278C339.557 19.9574 339.833 19.7102 340.049 19.3864C340.27 19.0568 340.415 18.6619 340.483 18.2017H343.909C343.853 19.2017 343.58 20.0824 343.091 20.8438C342.608 21.5994 341.941 22.1903 341.088 22.6165C340.236 23.0426 339.228 23.2557 338.063 23.2557ZM352.149 23.2557C350.825 23.2557 349.68 22.9744 348.714 22.4119C347.754 21.8437 347.012 21.054 346.49 20.0426C345.967 19.0256 345.706 17.8466 345.706 16.5057C345.706 15.1534 345.967 13.9716 346.49 12.9602C347.012 11.9432 347.754 11.1534 348.714 10.5909C349.68 10.0227 350.825 9.73864 352.149 9.73864C353.473 9.73864 354.615 10.0227 355.575 10.5909C356.541 11.1534 357.285 11.9432 357.808 12.9602C358.331 13.9716 358.592 15.1534 358.592 16.5057C358.592 17.8466 358.331 19.0256 357.808 20.0426C357.285 21.054 356.541 21.8437 355.575 22.4119C354.615 22.9744 353.473 23.2557 352.149 23.2557ZM352.166 20.4432C352.768 20.4432 353.271 20.2727 353.674 19.9318C354.078 19.5852 354.382 19.1136 354.586 18.517C354.797 17.9205 354.902 17.2415 354.902 16.4801C354.902 15.7188 354.797 15.0398 354.586 14.4432C354.382 13.8466 354.078 13.375 353.674 13.0284C353.271 12.6818 352.768 12.5085 352.166 12.5085C351.558 12.5085 351.047 12.6818 350.632 13.0284C350.223 13.375 349.913 13.8466 349.703 14.4432C349.498 15.0398 349.396 15.7188 349.396 16.4801C349.396 17.2415 349.498 17.9205 349.703 18.517C349.913 19.1136 350.223 19.5852 350.632 19.9318C351.047 20.2727 351.558 20.4432 352.166 20.4432ZM364.583 15.4318V23H360.953V9.90909H364.413V12.2188H364.566C364.856 11.4574 365.342 10.8551 366.024 10.4119C366.706 9.96307 367.532 9.73864 368.504 9.73864C369.413 9.73864 370.206 9.9375 370.882 10.3352C371.558 10.733 372.083 11.3011 372.458 12.0398C372.833 12.7727 373.021 13.6477 373.021 14.6648V23H369.39V15.3125C369.396 14.5114 369.191 13.8864 368.777 13.4375C368.362 12.983 367.791 12.7557 367.064 12.7557C366.575 12.7557 366.143 12.8608 365.768 13.071C365.399 13.2812 365.109 13.5881 364.899 13.9915C364.694 14.3892 364.589 14.8693 364.583 15.4318ZM382.846 9.90909V12.6364H374.962V9.90909H382.846ZM376.752 6.77273H380.382V18.9773C380.382 19.3125 380.434 19.5739 380.536 19.7614C380.638 19.9432 380.78 20.071 380.962 20.1449C381.15 20.2187 381.365 20.2557 381.61 20.2557C381.78 20.2557 381.951 20.2415 382.121 20.2131C382.292 20.179 382.422 20.1534 382.513 20.1364L383.084 22.8381C382.902 22.8949 382.647 22.9602 382.317 23.0341C381.988 23.1136 381.587 23.1619 381.115 23.179C380.24 23.2131 379.473 23.0966 378.814 22.8295C378.161 22.5625 377.652 22.1477 377.289 21.5852C376.925 21.0227 376.746 20.3125 376.752 19.4545V6.77273ZM385.211 23V9.90909H388.73V12.1932H388.867C389.105 11.3807 389.506 10.767 390.069 10.3523C390.631 9.93182 391.279 9.72159 392.012 9.72159C392.194 9.72159 392.39 9.73295 392.6 9.75568C392.81 9.77841 392.995 9.80966 393.154 9.84943V13.071C392.983 13.0199 392.748 12.9744 392.446 12.9347C392.145 12.8949 391.87 12.875 391.62 12.875C391.086 12.875 390.608 12.9915 390.188 13.2244C389.773 13.4517 389.444 13.7699 389.199 14.179C388.961 14.5881 388.841 15.0597 388.841 15.5938V23H385.211ZM398.389 23.2472C397.554 23.2472 396.809 23.1023 396.156 22.8125C395.502 22.517 394.985 22.0824 394.605 21.5085C394.23 20.929 394.042 20.2074 394.042 19.3438C394.042 18.6165 394.176 18.0057 394.443 17.5114C394.71 17.017 395.074 16.6193 395.534 16.3182C395.994 16.017 396.517 15.7898 397.102 15.6364C397.693 15.483 398.312 15.375 398.96 15.3125C399.721 15.233 400.335 15.1591 400.801 15.0909C401.267 15.017 401.605 14.9091 401.815 14.767C402.025 14.625 402.13 14.4148 402.13 14.1364V14.0852C402.13 13.5455 401.96 13.1278 401.619 12.8324C401.284 12.5369 400.806 12.3892 400.187 12.3892C399.534 12.3892 399.014 12.5341 398.627 12.8239C398.241 13.108 397.985 13.4659 397.86 13.8977L394.502 13.625C394.673 12.8295 395.008 12.142 395.508 11.5625C396.008 10.9773 396.653 10.5284 397.443 10.2159C398.238 9.89773 399.159 9.73864 400.204 9.73864C400.931 9.73864 401.627 9.82386 402.292 9.99432C402.963 10.1648 403.556 10.429 404.074 10.7869C404.596 11.1449 405.008 11.6051 405.309 12.1676C405.61 12.7244 405.761 13.392 405.761 14.1705V23H402.318V21.1847H402.216C402.005 21.5938 401.724 21.9545 401.372 22.267C401.02 22.5739 400.596 22.8153 400.102 22.9915C399.608 23.1619 399.037 23.2472 398.389 23.2472ZM399.429 20.7415C399.963 20.7415 400.434 20.6364 400.843 20.4261C401.252 20.2102 401.574 19.9205 401.806 19.5568C402.039 19.1932 402.156 18.7812 402.156 18.321V16.9318C402.042 17.0057 401.886 17.0739 401.687 17.1364C401.494 17.1932 401.275 17.2472 401.031 17.2983C400.787 17.3437 400.542 17.3864 400.298 17.4261C400.054 17.4602 399.832 17.4915 399.633 17.5199C399.207 17.5824 398.835 17.6818 398.517 17.8182C398.199 17.9545 397.951 18.1392 397.775 18.3722C397.599 18.5994 397.511 18.8835 397.511 19.2244C397.511 19.7188 397.69 20.0966 398.048 20.358C398.412 20.6136 398.872 20.7415 399.429 20.7415ZM413.402 23.2131C412.407 23.2131 411.507 22.9574 410.7 22.446C409.899 21.929 409.262 21.1705 408.791 20.1705C408.325 19.1648 408.092 17.9318 408.092 16.4716C408.092 14.9716 408.333 13.7244 408.816 12.7301C409.299 11.7301 409.941 10.983 410.743 10.4886C411.549 9.98864 412.433 9.73864 413.393 9.73864C414.126 9.73864 414.737 9.86364 415.225 10.1136C415.72 10.358 416.118 10.6648 416.419 11.0341C416.725 11.3977 416.958 11.7557 417.118 12.108H417.228V5.54545H420.85V23H417.271V20.9034H417.118C416.947 21.267 416.706 21.6278 416.393 21.9858C416.086 22.3381 415.686 22.6307 415.191 22.8636C414.703 23.0966 414.106 23.2131 413.402 23.2131ZM414.552 20.3239C415.137 20.3239 415.632 20.1648 416.035 19.8466C416.444 19.5227 416.757 19.071 416.973 18.4915C417.194 17.9119 417.305 17.233 417.305 16.4545C417.305 15.6761 417.197 15 416.981 14.4261C416.765 13.8523 416.453 13.4091 416.044 13.0966C415.635 12.7841 415.137 12.6278 414.552 12.6278C413.956 12.6278 413.453 12.7898 413.044 13.1136C412.635 13.4375 412.325 13.8864 412.115 14.4602C411.904 15.0341 411.799 15.6989 411.799 16.4545C411.799 17.2159 411.904 17.8892 412.115 18.4744C412.331 19.054 412.64 19.5085 413.044 19.8381C413.453 20.1619 413.956 20.3239 414.552 20.3239ZM427.569 23.2472C426.733 23.2472 425.989 23.1023 425.336 22.8125C424.682 22.517 424.165 22.0824 423.784 21.5085C423.409 20.929 423.222 20.2074 423.222 19.3438C423.222 18.6165 423.355 18.0057 423.623 17.5114C423.89 17.017 424.253 16.6193 424.713 16.3182C425.174 16.017 425.696 15.7898 426.282 15.6364C426.873 15.483 427.492 15.375 428.14 15.3125C428.901 15.233 429.515 15.1591 429.98 15.0909C430.446 15.017 430.784 14.9091 430.995 14.767C431.205 14.625 431.31 14.4148 431.31 14.1364V14.0852C431.31 13.5455 431.14 13.1278 430.799 12.8324C430.463 12.5369 429.986 12.3892 429.367 12.3892C428.713 12.3892 428.194 12.5341 427.807 12.8239C427.421 13.108 427.165 13.4659 427.04 13.8977L423.682 13.625C423.853 12.8295 424.188 12.142 424.688 11.5625C425.188 10.9773 425.833 10.5284 426.623 10.2159C427.418 9.89773 428.338 9.73864 429.384 9.73864C430.111 9.73864 430.807 9.82386 431.472 9.99432C432.142 10.1648 432.736 10.429 433.253 10.7869C433.776 11.1449 434.188 11.6051 434.489 12.1676C434.79 12.7244 434.941 13.392 434.941 14.1705V23H431.498V21.1847H431.395C431.185 21.5938 430.904 21.9545 430.551 22.267C430.199 22.5739 429.776 22.8153 429.282 22.9915C428.787 23.1619 428.216 23.2472 427.569 23.2472ZM428.608 20.7415C429.142 20.7415 429.614 20.6364 430.023 20.4261C430.432 20.2102 430.753 19.9205 430.986 19.5568C431.219 19.1932 431.336 18.7812 431.336 18.321V16.9318C431.222 17.0057 431.066 17.0739 430.867 17.1364C430.674 17.1932 430.455 17.2472 430.211 17.2983C429.966 17.3437 429.722 17.3864 429.478 17.4261C429.233 17.4602 429.012 17.4915 428.813 17.5199C428.387 17.5824 428.015 17.6818 427.696 17.8182C427.378 17.9545 427.131 18.1392 426.955 18.3722C426.779 18.5994 426.691 18.8835 426.691 19.2244C426.691 19.7188 426.87 20.0966 427.228 20.358C427.591 20.6136 428.051 20.7415 428.608 20.7415Z" fill="#343A40"/>
<path d="M5.03125 63H1.44034V51.3636H5.19034C6.31913 51.3636 7.28504 51.5966 8.08807 52.0625C8.8911 52.5246 9.50663 53.1894 9.93466 54.0568C10.3627 54.9205 10.5767 55.9545 10.5767 57.1591C10.5767 58.3712 10.3608 59.4148 9.92898 60.2898C9.49716 61.161 8.86837 61.8314 8.04261 62.3011C7.21686 62.767 6.21307 63 5.03125 63ZM2.84943 61.75H4.94034C5.90246 61.75 6.69981 61.5644 7.33239 61.1932C7.96496 60.822 8.43655 60.2936 8.74716 59.608C9.05777 58.9223 9.21307 58.1061 9.21307 57.1591C9.21307 56.2197 9.05966 55.411 8.75284 54.733C8.44602 54.0511 7.98769 53.5284 7.37784 53.1648C6.76799 52.7973 6.00852 52.6136 5.09943 52.6136H2.84943V61.75ZM12.7585 63V54.2727H14.0994V63H12.7585ZM13.4403 52.8182C13.179 52.8182 12.9536 52.7292 12.7642 52.5511C12.5786 52.3731 12.4858 52.1591 12.4858 51.9091C12.4858 51.6591 12.5786 51.4451 12.7642 51.267C12.9536 51.089 13.179 51 13.4403 51C13.7017 51 13.9252 51.089 14.1108 51.267C14.3002 51.4451 14.3949 51.6591 14.3949 51.9091C14.3949 52.1591 14.3002 52.3731 14.1108 52.5511C13.9252 52.7292 13.7017 52.8182 13.4403 52.8182ZM20.0781 66.4545C19.4304 66.4545 18.8736 66.3712 18.4077 66.2045C17.9418 66.0417 17.5535 65.8258 17.2429 65.5568C16.9361 65.2917 16.6918 65.0076 16.5099 64.7045L17.5781 63.9545C17.6993 64.1136 17.8527 64.2955 18.0384 64.5C18.224 64.7083 18.4777 64.8883 18.7997 65.0398C19.1255 65.1951 19.5516 65.2727 20.0781 65.2727C20.7827 65.2727 21.3641 65.1023 21.8224 64.7614C22.2808 64.4205 22.5099 63.8864 22.5099 63.1591V61.3864H22.3963C22.2978 61.5455 22.1577 61.7424 21.9759 61.9773C21.7978 62.2083 21.5402 62.4148 21.2031 62.5966C20.8698 62.7746 20.419 62.8636 19.8509 62.8636C19.1463 62.8636 18.5137 62.697 17.9531 62.3636C17.3963 62.0303 16.955 61.5455 16.6293 60.9091C16.3073 60.2727 16.1463 59.5 16.1463 58.5909C16.1463 57.697 16.3035 56.9186 16.6179 56.2557C16.9323 55.589 17.3698 55.0739 17.9304 54.7102C18.491 54.3428 19.1387 54.1591 19.8736 54.1591C20.4418 54.1591 20.8925 54.2538 21.2259 54.4432C21.563 54.6288 21.8205 54.8409 21.9986 55.0795C22.1804 55.3144 22.3205 55.5076 22.419 55.6591H22.5554V54.2727H23.8509V63.25C23.8509 64 23.6804 64.6098 23.3395 65.0795C23.0024 65.553 22.5478 65.8996 21.9759 66.1193C21.4077 66.3428 20.7751 66.4545 20.0781 66.4545ZM20.0327 61.6591C20.5705 61.6591 21.0251 61.536 21.3963 61.2898C21.7675 61.0436 22.0497 60.6894 22.2429 60.2273C22.4361 59.7652 22.5327 59.2121 22.5327 58.5682C22.5327 57.9394 22.438 57.3845 22.2486 56.9034C22.0592 56.4223 21.7789 56.0455 21.4077 55.7727C21.0365 55.5 20.5781 55.3636 20.0327 55.3636C19.4645 55.3636 18.991 55.5076 18.6122 55.7955C18.2372 56.0833 17.955 56.4697 17.7656 56.9545C17.58 57.4394 17.4872 57.9773 17.4872 58.5682C17.4872 59.1742 17.5819 59.7102 17.7713 60.1761C17.9645 60.6383 18.2486 61.0019 18.6236 61.267C19.0024 61.5284 19.4721 61.6591 20.0327 61.6591ZM26.3054 63V54.2727H27.6463V63H26.3054ZM26.9872 52.8182C26.7259 52.8182 26.5005 52.7292 26.3111 52.5511C26.1255 52.3731 26.0327 52.1591 26.0327 51.9091C26.0327 51.6591 26.1255 51.4451 26.3111 51.267C26.5005 51.089 26.7259 51 26.9872 51C27.2486 51 27.4721 51.089 27.6577 51.267C27.8471 51.4451 27.9418 51.6591 27.9418 51.9091C27.9418 52.1591 27.8471 52.3731 27.6577 52.5511C27.4721 52.7292 27.2486 52.8182 26.9872 52.8182ZM33.8977 54.2727V55.4091H29.375V54.2727H33.8977ZM30.6932 52.1818H32.0341V60.5C32.0341 60.8788 32.089 61.1629 32.1989 61.3523C32.3125 61.5379 32.4564 61.6629 32.6307 61.7273C32.8087 61.7879 32.9962 61.8182 33.1932 61.8182C33.3409 61.8182 33.4621 61.8106 33.5568 61.7955C33.6515 61.7765 33.7273 61.7614 33.7841 61.75L34.0568 62.9545C33.9659 62.9886 33.839 63.0227 33.6761 63.0568C33.5133 63.0947 33.3068 63.1136 33.0568 63.1136C32.678 63.1136 32.3068 63.0322 31.9432 62.8693C31.5833 62.7064 31.2841 62.4583 31.0455 62.125C30.8106 61.7917 30.6932 61.3712 30.6932 60.8636V52.1818ZM39.4801 63.1818C38.6392 63.1818 37.9138 62.9962 37.304 62.625C36.6979 62.25 36.2301 61.7273 35.9006 61.0568C35.5748 60.3826 35.4119 59.5985 35.4119 58.7045C35.4119 57.8106 35.5748 57.0227 35.9006 56.3409C36.2301 55.6553 36.6884 55.1212 37.2756 54.7386C37.8665 54.3523 38.5559 54.1591 39.3438 54.1591C39.7983 54.1591 40.2472 54.2348 40.6903 54.3864C41.1335 54.5379 41.5369 54.7841 41.9006 55.125C42.2642 55.4621 42.554 55.9091 42.7699 56.4659C42.9858 57.0227 43.0938 57.7083 43.0938 58.5227V59.0909H36.3665V57.9318H41.7301C41.7301 57.4394 41.6316 57 41.4347 56.6136C41.2415 56.2273 40.965 55.9223 40.6051 55.6989C40.2491 55.4754 39.8286 55.3636 39.3438 55.3636C38.8097 55.3636 38.3475 55.4962 37.9574 55.7614C37.571 56.0227 37.2737 56.3636 37.0653 56.7841C36.857 57.2045 36.7528 57.6553 36.7528 58.1364V58.9091C36.7528 59.5682 36.8665 60.1269 37.0938 60.5852C37.3248 61.0398 37.6449 61.3864 38.054 61.625C38.4631 61.8598 38.9384 61.9773 39.4801 61.9773C39.8324 61.9773 40.1506 61.928 40.4347 61.8295C40.7225 61.7273 40.9706 61.5758 41.179 61.375C41.3873 61.1705 41.5483 60.9167 41.6619 60.6136L42.9574 60.9773C42.821 61.4167 42.5919 61.803 42.2699 62.1364C41.9479 62.4659 41.5502 62.7235 41.0767 62.9091C40.6032 63.0909 40.071 63.1818 39.4801 63.1818ZM55.1335 59.4318V54.2727H56.4744V63H55.1335V61.5227H55.0426C54.8381 61.9659 54.5199 62.3428 54.0881 62.6534C53.6563 62.9602 53.1108 63.1136 52.4517 63.1136C51.9062 63.1136 51.4214 62.9943 50.9972 62.7557C50.5729 62.5133 50.2396 62.1496 49.9972 61.6648C49.7547 61.1761 49.6335 60.5606 49.6335 59.8182V54.2727H50.9744V59.7273C50.9744 60.3636 51.1525 60.8712 51.5085 61.25C51.8684 61.6288 52.3267 61.8182 52.8835 61.8182C53.2169 61.8182 53.5559 61.733 53.9006 61.5625C54.2491 61.392 54.5407 61.1307 54.7756 60.7784C55.0142 60.4261 55.1335 59.9773 55.1335 59.4318ZM58.9304 63V54.2727H60.2259V55.6364H60.3395C60.5213 55.1705 60.8149 54.8087 61.2202 54.5511C61.6255 54.2898 62.1122 54.1591 62.6804 54.1591C63.2562 54.1591 63.7353 54.2898 64.1179 54.5511C64.5043 54.8087 64.8054 55.1705 65.0213 55.6364H65.1122C65.3357 55.1856 65.6709 54.8277 66.1179 54.5625C66.5649 54.2936 67.1009 54.1591 67.7259 54.1591C68.5062 54.1591 69.1444 54.4034 69.6406 54.892C70.1368 55.3769 70.3849 56.1326 70.3849 57.1591V63H69.044V57.1591C69.044 56.5152 68.8679 56.0549 68.5156 55.7784C68.1634 55.5019 67.7486 55.3636 67.2713 55.3636C66.6577 55.3636 66.1823 55.5492 65.8452 55.9205C65.508 56.2879 65.3395 56.7538 65.3395 57.3182V63H63.9759V57.0227C63.9759 56.5265 63.8149 56.1269 63.4929 55.8239C63.1709 55.517 62.7562 55.3636 62.2486 55.3636C61.9001 55.3636 61.5743 55.4564 61.2713 55.642C60.9721 55.8277 60.7296 56.0852 60.544 56.4148C60.3622 56.7405 60.2713 57.1174 60.2713 57.5455V63H58.9304ZM81.1321 54.2727V55.4091H76.6094V54.2727H81.1321ZM77.9276 52.1818H79.2685V60.5C79.2685 60.8788 79.3234 61.1629 79.4332 61.3523C79.5469 61.5379 79.6908 61.6629 79.8651 61.7273C80.0431 61.7879 80.2306 61.8182 80.4276 61.8182C80.5753 61.8182 80.6965 61.8106 80.7912 61.7955C80.8859 61.7765 80.9616 61.7614 81.0185 61.75L81.2912 62.9545C81.2003 62.9886 81.0734 63.0227 80.9105 63.0568C80.7476 63.0947 80.5412 63.1136 80.2912 63.1136C79.9124 63.1136 79.5412 63.0322 79.1776 62.8693C78.8177 62.7064 78.5185 62.4583 78.2798 62.125C78.045 61.7917 77.9276 61.3712 77.9276 60.8636V52.1818ZM86.7145 63.1818C85.8736 63.1818 85.1482 62.9962 84.5384 62.625C83.9323 62.25 83.4645 61.7273 83.1349 61.0568C82.8092 60.3826 82.6463 59.5985 82.6463 58.7045C82.6463 57.8106 82.8092 57.0227 83.1349 56.3409C83.4645 55.6553 83.9228 55.1212 84.5099 54.7386C85.1009 54.3523 85.7902 54.1591 86.5781 54.1591C87.0327 54.1591 87.4815 54.2348 87.9247 54.3864C88.3679 54.5379 88.7713 54.7841 89.1349 55.125C89.4986 55.4621 89.7884 55.9091 90.0043 56.4659C90.2202 57.0227 90.3281 57.7083 90.3281 58.5227V59.0909H83.6009V57.9318H88.9645C88.9645 57.4394 88.866 57 88.669 56.6136C88.4759 56.2273 88.1993 55.9223 87.8395 55.6989C87.4834 55.4754 87.063 55.3636 86.5781 55.3636C86.044 55.3636 85.5819 55.4962 85.1918 55.7614C84.8054 56.0227 84.508 56.3636 84.2997 56.7841C84.0914 57.2045 83.9872 57.6553 83.9872 58.1364V58.9091C83.9872 59.5682 84.1009 60.1269 84.3281 60.5852C84.5592 61.0398 84.8793 61.3864 85.2884 61.625C85.6974 61.8598 86.1728 61.9773 86.7145 61.9773C87.0668 61.9773 87.3849 61.928 87.669 61.8295C87.9569 61.7273 88.205 61.5758 88.4134 61.375C88.6217 61.1705 88.7827 60.9167 88.8963 60.6136L90.1918 60.9773C90.0554 61.4167 89.8262 61.803 89.5043 62.1364C89.1823 62.4659 88.7846 62.7235 88.3111 62.9091C87.8376 63.0909 87.3054 63.1818 86.7145 63.1818ZM93.1335 54.2727L95.2244 57.8409L97.3153 54.2727H98.8608L96.0426 58.6364L98.8608 63H97.3153L95.2244 59.6136L93.1335 63H91.5881L94.3608 58.6364L91.5881 54.2727H93.1335ZM104.57 54.2727V55.4091H100.047V54.2727H104.57ZM101.365 52.1818H102.706V60.5C102.706 60.8788 102.761 61.1629 102.871 61.3523C102.984 61.5379 103.128 61.6629 103.303 61.7273C103.481 61.7879 103.668 61.8182 103.865 61.8182C104.013 61.8182 104.134 61.8106 104.229 61.7955C104.323 61.7765 104.399 61.7614 104.456 61.75L104.729 62.9545C104.638 62.9886 104.511 63.0227 104.348 63.0568C104.185 63.0947 103.979 63.1136 103.729 63.1136C103.35 63.1136 102.979 63.0322 102.615 62.8693C102.255 62.7064 101.956 62.4583 101.717 62.125C101.482 61.7917 101.365 61.3712 101.365 60.8636V52.1818ZM110.038 63.1818C109.25 63.1818 108.559 62.9943 107.964 62.6193C107.374 62.2443 106.911 61.7197 106.578 61.0455C106.249 60.3712 106.084 59.5833 106.084 58.6818C106.084 57.7727 106.249 56.9792 106.578 56.3011C106.911 55.6231 107.374 55.0966 107.964 54.7216C108.559 54.3466 109.25 54.1591 110.038 54.1591C110.826 54.1591 111.516 54.3466 112.107 54.7216C112.701 55.0966 113.163 55.6231 113.493 56.3011C113.826 56.9792 113.993 57.7727 113.993 58.6818C113.993 59.5833 113.826 60.3712 113.493 61.0455C113.163 61.7197 112.701 62.2443 112.107 62.6193C111.516 62.9943 110.826 63.1818 110.038 63.1818ZM110.038 61.9773C110.637 61.9773 111.129 61.8239 111.516 61.517C111.902 61.2102 112.188 60.8068 112.374 60.3068C112.559 59.8068 112.652 59.2652 112.652 58.6818C112.652 58.0985 112.559 57.5549 112.374 57.0511C112.188 56.5473 111.902 56.1402 111.516 55.8295C111.129 55.5189 110.637 55.3636 110.038 55.3636C109.44 55.3636 108.947 55.5189 108.561 55.8295C108.175 56.1402 107.889 56.5473 107.703 57.0511C107.518 57.5549 107.425 58.0985 107.425 58.6818C107.425 59.2652 107.518 59.8068 107.703 60.3068C107.889 60.8068 108.175 61.2102 108.561 61.517C108.947 61.8239 109.44 61.9773 110.038 61.9773ZM126.494 66.2727V61.6591H126.381C126.282 61.8182 126.142 62.0189 125.96 62.2614C125.778 62.5 125.519 62.714 125.182 62.9034C124.845 63.089 124.396 63.1818 123.835 63.1818C123.108 63.1818 122.466 62.9981 121.909 62.6307C121.352 62.2595 120.917 61.7367 120.602 61.0625C120.288 60.3845 120.131 59.5833 120.131 58.6591C120.131 57.7424 120.288 56.947 120.602 56.2727C120.917 55.5985 121.354 55.0777 121.915 54.7102C122.475 54.3428 123.123 54.1591 123.858 54.1591C124.426 54.1591 124.875 54.2538 125.205 54.4432C125.538 54.6288 125.792 54.8409 125.966 55.0795C126.144 55.3144 126.282 55.5076 126.381 55.6591H126.54V54.2727H127.835V66.2727H126.494ZM124.017 61.9773C124.555 61.9773 125.009 61.8371 125.381 61.5568C125.752 61.2727 126.034 60.8807 126.227 60.3807C126.42 59.8769 126.517 59.2955 126.517 58.6364C126.517 57.9848 126.422 57.4148 126.233 56.9261C126.044 56.4337 125.763 56.0511 125.392 55.7784C125.021 55.5019 124.563 55.3636 124.017 55.3636C123.449 55.3636 122.975 55.5095 122.597 55.8011C122.222 56.089 121.939 56.4811 121.75 56.9773C121.564 57.4697 121.472 58.0227 121.472 58.6364C121.472 59.2576 121.566 59.822 121.756 60.3295C121.949 60.8333 122.233 61.2348 122.608 61.5341C122.987 61.8295 123.456 61.9773 124.017 61.9773ZM135.79 59.4318V54.2727H137.131V63H135.79V61.5227H135.699C135.494 61.9659 135.176 62.3428 134.744 62.6534C134.313 62.9602 133.767 63.1136 133.108 63.1136C132.562 63.1136 132.078 62.9943 131.653 62.7557C131.229 62.5133 130.896 62.1496 130.653 61.6648C130.411 61.1761 130.29 60.5606 130.29 59.8182V54.2727H131.631V59.7273C131.631 60.3636 131.809 60.8712 132.165 61.25C132.525 61.6288 132.983 61.8182 133.54 61.8182C133.873 61.8182 134.212 61.733 134.557 61.5625C134.905 61.392 135.197 61.1307 135.432 60.7784C135.67 60.4261 135.79 59.9773 135.79 59.4318ZM143.246 63.1818C142.405 63.1818 141.679 62.9962 141.07 62.625C140.464 62.25 139.996 61.7273 139.666 61.0568C139.34 60.3826 139.178 59.5985 139.178 58.7045C139.178 57.8106 139.34 57.0227 139.666 56.3409C139.996 55.6553 140.454 55.1212 141.041 54.7386C141.632 54.3523 142.321 54.1591 143.109 54.1591C143.564 54.1591 144.013 54.2348 144.456 54.3864C144.899 54.5379 145.303 54.7841 145.666 55.125C146.03 55.4621 146.32 55.9091 146.536 56.4659C146.751 57.0227 146.859 57.7083 146.859 58.5227V59.0909H140.132V57.9318H145.496C145.496 57.4394 145.397 57 145.2 56.6136C145.007 56.2273 144.731 55.9223 144.371 55.6989C144.015 55.4754 143.594 55.3636 143.109 55.3636C142.575 55.3636 142.113 55.4962 141.723 55.7614C141.337 56.0227 141.039 56.3636 140.831 56.7841C140.623 57.2045 140.518 57.6553 140.518 58.1364V58.9091C140.518 59.5682 140.632 60.1269 140.859 60.5852C141.09 61.0398 141.411 61.3864 141.82 61.625C142.229 61.8598 142.704 61.9773 143.246 61.9773C143.598 61.9773 143.916 61.928 144.2 61.8295C144.488 61.7273 144.736 61.5758 144.945 61.375C145.153 61.1705 145.314 60.9167 145.428 60.6136L146.723 60.9773C146.587 61.4167 146.357 61.803 146.036 62.1364C145.714 62.4659 145.316 62.7235 144.842 62.9091C144.369 63.0909 143.837 63.1818 143.246 63.1818ZM160.536 54.2727L157.308 63H155.945L152.717 54.2727H154.172L156.581 61.2273H156.672L159.081 54.2727H160.536ZM165.538 63.1818C164.75 63.1818 164.059 62.9943 163.464 62.6193C162.874 62.2443 162.411 61.7197 162.078 61.0455C161.749 60.3712 161.584 59.5833 161.584 58.6818C161.584 57.7727 161.749 56.9792 162.078 56.3011C162.411 55.6231 162.874 55.0966 163.464 54.7216C164.059 54.3466 164.75 54.1591 165.538 54.1591C166.326 54.1591 167.016 54.3466 167.607 54.7216C168.201 55.0966 168.663 55.6231 168.993 56.3011C169.326 56.9792 169.493 57.7727 169.493 58.6818C169.493 59.5833 169.326 60.3712 168.993 61.0455C168.663 61.7197 168.201 62.2443 167.607 62.6193C167.016 62.9943 166.326 63.1818 165.538 63.1818ZM165.538 61.9773C166.137 61.9773 166.629 61.8239 167.016 61.517C167.402 61.2102 167.688 60.8068 167.874 60.3068C168.059 59.8068 168.152 59.2652 168.152 58.6818C168.152 58.0985 168.059 57.5549 167.874 57.0511C167.688 56.5473 167.402 56.1402 167.016 55.8295C166.629 55.5189 166.137 55.3636 165.538 55.3636C164.94 55.3636 164.447 55.5189 164.061 55.8295C163.675 56.1402 163.389 56.5473 163.203 57.0511C163.018 57.5549 162.925 58.0985 162.925 58.6818C162.925 59.2652 163.018 59.8068 163.203 60.3068C163.389 60.8068 163.675 61.2102 164.061 61.517C164.447 61.8239 164.94 61.9773 165.538 61.9773ZM175.085 63.1818C174.267 63.1818 173.563 62.9886 172.972 62.6023C172.381 62.2159 171.926 61.6837 171.608 61.0057C171.29 60.3277 171.131 59.553 171.131 58.6818C171.131 57.7955 171.294 57.0133 171.619 56.3352C171.949 55.6534 172.407 55.1212 172.994 54.7386C173.585 54.3523 174.275 54.1591 175.062 54.1591C175.676 54.1591 176.229 54.2727 176.722 54.5C177.214 54.7273 177.617 55.0455 177.932 55.4545C178.246 55.8636 178.441 56.3409 178.517 56.8864H177.176C177.074 56.4886 176.847 56.1364 176.494 55.8295C176.146 55.5189 175.676 55.3636 175.085 55.3636C174.563 55.3636 174.104 55.5 173.71 55.7727C173.32 56.0417 173.015 56.4223 172.795 56.9148C172.58 57.4034 172.472 57.9773 172.472 58.6364C172.472 59.3106 172.578 59.8977 172.79 60.3977C173.006 60.8977 173.309 61.286 173.699 61.5625C174.093 61.839 174.555 61.9773 175.085 61.9773C175.434 61.9773 175.75 61.9167 176.034 61.7955C176.318 61.6742 176.559 61.5 176.756 61.2727C176.953 61.0455 177.093 60.7727 177.176 60.4545H178.517C178.441 60.9697 178.254 61.4337 177.955 61.8466C177.659 62.2557 177.267 62.5814 176.778 62.8239C176.294 63.0625 175.729 63.1818 175.085 63.1818ZM184.136 63.1818C183.295 63.1818 182.57 62.9962 181.96 62.625C181.354 62.25 180.886 61.7273 180.557 61.0568C180.231 60.3826 180.068 59.5985 180.068 58.7045C180.068 57.8106 180.231 57.0227 180.557 56.3409C180.886 55.6553 181.345 55.1212 181.932 54.7386C182.523 54.3523 183.212 54.1591 184 54.1591C184.455 54.1591 184.903 54.2348 185.347 54.3864C185.79 54.5379 186.193 54.7841 186.557 55.125C186.92 55.4621 187.21 55.9091 187.426 56.4659C187.642 57.0227 187.75 57.7083 187.75 58.5227V59.0909H181.023V57.9318H186.386C186.386 57.4394 186.288 57 186.091 56.6136C185.898 56.2273 185.621 55.9223 185.261 55.6989C184.905 55.4754 184.485 55.3636 184 55.3636C183.466 55.3636 183.004 55.4962 182.614 55.7614C182.227 56.0227 181.93 56.3636 181.722 56.7841C181.513 57.2045 181.409 57.6553 181.409 58.1364V58.9091C181.409 59.5682 181.523 60.1269 181.75 60.5852C181.981 61.0398 182.301 61.3864 182.71 61.625C183.119 61.8598 183.595 61.9773 184.136 61.9773C184.489 61.9773 184.807 61.928 185.091 61.8295C185.379 61.7273 185.627 61.5758 185.835 61.375C186.044 61.1705 186.205 60.9167 186.318 60.6136L187.614 60.9773C187.477 61.4167 187.248 61.803 186.926 62.1364C186.604 62.4659 186.206 62.7235 185.733 62.9091C185.259 63.0909 184.727 63.1818 184.136 63.1818ZM185.114 53.2273L183.932 51.6364L182.75 53.2273H181.477V53.1364L183.318 50.7727H184.545L186.386 53.1364V53.2273H185.114ZM197.585 63.1818C196.858 63.1818 196.216 62.9981 195.659 62.6307C195.102 62.2595 194.667 61.7367 194.352 61.0625C194.038 60.3845 193.881 59.5833 193.881 58.6591C193.881 57.7424 194.038 56.947 194.352 56.2727C194.667 55.5985 195.104 55.0777 195.665 54.7102C196.225 54.3428 196.873 54.1591 197.608 54.1591C198.176 54.1591 198.625 54.2538 198.955 54.4432C199.288 54.6288 199.542 54.8409 199.716 55.0795C199.894 55.3144 200.032 55.5076 200.131 55.6591H200.244V51.3636H201.585V63H200.29V61.6591H200.131C200.032 61.8182 199.892 62.0189 199.71 62.2614C199.528 62.5 199.269 62.714 198.932 62.9034C198.595 63.089 198.146 63.1818 197.585 63.1818ZM197.767 61.9773C198.305 61.9773 198.759 61.8371 199.131 61.5568C199.502 61.2727 199.784 60.8807 199.977 60.3807C200.17 59.8769 200.267 59.2955 200.267 58.6364C200.267 57.9848 200.172 57.4148 199.983 56.9261C199.794 56.4337 199.513 56.0511 199.142 55.7784C198.771 55.5019 198.313 55.3636 197.767 55.3636C197.199 55.3636 196.725 55.5095 196.347 55.8011C195.972 56.089 195.689 56.4811 195.5 56.9773C195.314 57.4697 195.222 58.0227 195.222 58.6364C195.222 59.2576 195.316 59.822 195.506 60.3295C195.699 60.8333 195.983 61.2348 196.358 61.5341C196.737 61.8295 197.206 61.9773 197.767 61.9773ZM207.886 63.1818C207.045 63.1818 206.32 62.9962 205.71 62.625C205.104 62.25 204.636 61.7273 204.307 61.0568C203.981 60.3826 203.818 59.5985 203.818 58.7045C203.818 57.8106 203.981 57.0227 204.307 56.3409C204.636 55.6553 205.095 55.1212 205.682 54.7386C206.273 54.3523 206.962 54.1591 207.75 54.1591C208.205 54.1591 208.653 54.2348 209.097 54.3864C209.54 54.5379 209.943 54.7841 210.307 55.125C210.67 55.4621 210.96 55.9091 211.176 56.4659C211.392 57.0227 211.5 57.7083 211.5 58.5227V59.0909H204.773V57.9318H210.136C210.136 57.4394 210.038 57 209.841 56.6136C209.648 56.2273 209.371 55.9223 209.011 55.6989C208.655 55.4754 208.235 55.3636 207.75 55.3636C207.216 55.3636 206.754 55.4962 206.364 55.7614C205.977 56.0227 205.68 56.3636 205.472 56.7841C205.263 57.2045 205.159 57.6553 205.159 58.1364V58.9091C205.159 59.5682 205.273 60.1269 205.5 60.5852C205.731 61.0398 206.051 61.3864 206.46 61.625C206.869 61.8598 207.345 61.9773 207.886 61.9773C208.239 61.9773 208.557 61.928 208.841 61.8295C209.129 61.7273 209.377 61.5758 209.585 61.375C209.794 61.1705 209.955 60.9167 210.068 60.6136L211.364 60.9773C211.227 61.4167 210.998 61.803 210.676 62.1364C210.354 62.4659 209.956 62.7235 209.483 62.9091C209.009 63.0909 208.477 63.1818 207.886 63.1818ZM219.722 56.2273L218.517 56.5682C218.441 56.3674 218.33 56.1723 218.182 55.983C218.038 55.7898 217.841 55.6307 217.591 55.5057C217.341 55.3807 217.021 55.3182 216.631 55.3182C216.097 55.3182 215.652 55.4413 215.295 55.6875C214.943 55.9299 214.767 56.2386 214.767 56.6136C214.767 56.947 214.888 57.2102 215.131 57.4034C215.373 57.5966 215.752 57.7576 216.267 57.8864L217.562 58.2045C218.343 58.3939 218.924 58.6837 219.307 59.0739C219.689 59.4602 219.881 59.9583 219.881 60.5682C219.881 61.0682 219.737 61.5152 219.449 61.9091C219.165 62.303 218.767 62.6136 218.256 62.8409C217.744 63.0682 217.15 63.1818 216.472 63.1818C215.581 63.1818 214.845 62.9886 214.261 62.6023C213.678 62.2159 213.309 61.6515 213.153 60.9091L214.426 60.5909C214.547 61.0606 214.777 61.4129 215.114 61.6477C215.455 61.8826 215.9 62 216.449 62C217.074 62 217.57 61.8674 217.938 61.6023C218.309 61.3333 218.494 61.0114 218.494 60.6364C218.494 60.3333 218.388 60.0795 218.176 59.875C217.964 59.6667 217.638 59.5114 217.199 59.4091L215.744 59.0682C214.945 58.8788 214.358 58.5852 213.983 58.1875C213.612 57.786 213.426 57.2841 213.426 56.6818C213.426 56.1894 213.564 55.7538 213.841 55.375C214.121 54.9962 214.502 54.6989 214.983 54.483C215.468 54.267 216.017 54.1591 216.631 54.1591C217.494 54.1591 218.172 54.3485 218.665 54.7273C219.161 55.1061 219.513 55.6061 219.722 56.2273ZM225.558 63.1818C224.717 63.1818 223.992 62.9962 223.382 62.625C222.776 62.25 222.308 61.7273 221.979 61.0568C221.653 60.3826 221.49 59.5985 221.49 58.7045C221.49 57.8106 221.653 57.0227 221.979 56.3409C222.308 55.6553 222.767 55.1212 223.354 54.7386C223.945 54.3523 224.634 54.1591 225.422 54.1591C225.876 54.1591 226.325 54.2348 226.768 54.3864C227.212 54.5379 227.615 54.7841 227.979 55.125C228.342 55.4621 228.632 55.9091 228.848 56.4659C229.064 57.0227 229.172 57.7083 229.172 58.5227V59.0909H222.445V57.9318H227.808C227.808 57.4394 227.71 57 227.513 56.6136C227.32 56.2273 227.043 55.9223 226.683 55.6989C226.327 55.4754 225.907 55.3636 225.422 55.3636C224.888 55.3636 224.426 55.4962 224.036 55.7614C223.649 56.0227 223.352 56.3636 223.143 56.7841C222.935 57.2045 222.831 57.6553 222.831 58.1364V58.9091C222.831 59.5682 222.945 60.1269 223.172 60.5852C223.403 61.0398 223.723 61.3864 224.132 61.625C224.541 61.8598 225.017 61.9773 225.558 61.9773C225.911 61.9773 226.229 61.928 226.513 61.8295C226.801 61.7273 227.049 61.5758 227.257 61.375C227.465 61.1705 227.626 60.9167 227.74 60.6136L229.036 60.9773C228.899 61.4167 228.67 61.803 228.348 62.1364C228.026 62.4659 227.628 62.7235 227.155 62.9091C226.681 63.0909 226.149 63.1818 225.558 63.1818ZM231.212 54.2727H232.553V63.6364C232.553 64.1742 232.46 64.6402 232.274 65.0341C232.092 65.428 231.816 65.733 231.445 65.9489C231.077 66.1648 230.613 66.2727 230.053 66.2727C230.007 66.2727 229.962 66.2727 229.916 66.2727C229.871 66.2727 229.825 66.2727 229.78 66.2727V65.0227C229.825 65.0227 229.867 65.0227 229.905 65.0227C229.943 65.0227 229.984 65.0227 230.03 65.0227C230.439 65.0227 230.738 64.9015 230.928 64.6591C231.117 64.4205 231.212 64.0795 231.212 63.6364V54.2727ZM231.871 52.8182C231.609 52.8182 231.384 52.7292 231.195 52.5511C231.009 52.3731 230.916 52.1591 230.916 51.9091C230.916 51.6591 231.009 51.4451 231.195 51.267C231.384 51.089 231.609 51 231.871 51C232.132 51 232.356 51.089 232.541 51.267C232.731 51.4451 232.825 51.6591 232.825 51.9091C232.825 52.1591 232.731 52.3731 232.541 52.5511C232.356 52.7292 232.132 52.8182 231.871 52.8182ZM237.577 63.2045C237.024 63.2045 236.522 63.1004 236.071 62.892C235.62 62.6799 235.262 62.375 234.997 61.9773C234.732 61.5758 234.599 61.0909 234.599 60.5227C234.599 60.0227 234.698 59.6174 234.895 59.3068C235.092 58.9924 235.355 58.7462 235.685 58.5682C236.014 58.3902 236.378 58.2576 236.776 58.1705C237.177 58.0795 237.58 58.0076 237.986 57.9545C238.516 57.8864 238.946 57.8352 239.276 57.8011C239.609 57.7633 239.851 57.7008 240.003 57.6136C240.158 57.5265 240.236 57.375 240.236 57.1591V57.1136C240.236 56.553 240.082 56.1174 239.776 55.8068C239.473 55.4962 239.012 55.3409 238.395 55.3409C237.755 55.3409 237.253 55.4811 236.889 55.7614C236.526 56.0417 236.27 56.3409 236.122 56.6591L234.849 56.2045C235.077 55.6742 235.38 55.2614 235.759 54.9659C236.141 54.6667 236.558 54.4583 237.009 54.3409C237.463 54.2197 237.91 54.1591 238.349 54.1591C238.63 54.1591 238.952 54.1932 239.315 54.2614C239.683 54.3258 240.037 54.4602 240.378 54.6648C240.723 54.8693 241.009 55.178 241.236 55.5909C241.463 56.0038 241.577 56.5568 241.577 57.25V63H240.236V61.8182H240.168C240.077 62.0076 239.925 62.2102 239.713 62.4261C239.501 62.642 239.219 62.8258 238.866 62.9773C238.514 63.1288 238.084 63.2045 237.577 63.2045ZM237.781 62C238.312 62 238.759 61.8958 239.122 61.6875C239.49 61.4792 239.766 61.2102 239.952 60.8807C240.141 60.5511 240.236 60.2045 240.236 59.8409V58.6136C240.179 58.6818 240.054 58.7443 239.861 58.8011C239.671 58.8542 239.452 58.9015 239.202 58.9432C238.955 58.9811 238.715 59.0152 238.48 59.0455C238.249 59.072 238.062 59.0947 237.918 59.1136C237.569 59.1591 237.243 59.233 236.94 59.3352C236.641 59.4337 236.399 59.5833 236.213 59.7841C236.031 59.9811 235.94 60.25 235.94 60.5909C235.94 61.0568 236.113 61.4091 236.457 61.6477C236.806 61.8826 237.247 62 237.781 62ZM252.07 63.1818C251.251 63.1818 250.547 62.9886 249.956 62.6023C249.365 62.2159 248.911 61.6837 248.592 61.0057C248.274 60.3277 248.115 59.553 248.115 58.6818C248.115 57.7955 248.278 57.0133 248.604 56.3352C248.933 55.6534 249.392 55.1212 249.979 54.7386C250.57 54.3523 251.259 54.1591 252.047 54.1591C252.661 54.1591 253.214 54.2727 253.706 54.5C254.198 54.7273 254.602 55.0455 254.916 55.4545C255.231 55.8636 255.426 56.3409 255.501 56.8864H254.161C254.058 56.4886 253.831 56.1364 253.479 55.8295C253.13 55.5189 252.661 55.3636 252.07 55.3636C251.547 55.3636 251.089 55.5 250.695 55.7727C250.304 56.0417 250 56.4223 249.78 56.9148C249.564 57.4034 249.456 57.9773 249.456 58.6364C249.456 59.3106 249.562 59.8977 249.774 60.3977C249.99 60.8977 250.293 61.286 250.683 61.5625C251.077 61.839 251.539 61.9773 252.07 61.9773C252.418 61.9773 252.734 61.9167 253.018 61.7955C253.303 61.6742 253.543 61.5 253.74 61.2727C253.937 61.0455 254.077 60.7727 254.161 60.4545H255.501C255.426 60.9697 255.238 61.4337 254.939 61.8466C254.643 62.2557 254.251 62.5814 253.763 62.8239C253.278 63.0625 252.714 63.1818 252.07 63.1818ZM257.462 63V54.2727H258.757V55.5909H258.848C259.007 55.1591 259.295 54.8087 259.712 54.5398C260.128 54.2708 260.598 54.1364 261.121 54.1364C261.219 54.1364 261.342 54.1383 261.49 54.142C261.638 54.1458 261.75 54.1515 261.825 54.1591V55.5227C261.78 55.5114 261.676 55.4943 261.513 55.4716C261.354 55.4451 261.185 55.4318 261.007 55.4318C260.583 55.4318 260.204 55.5208 259.871 55.6989C259.541 55.8731 259.28 56.1155 259.087 56.4261C258.897 56.733 258.803 57.0833 258.803 57.4773V63H257.462ZM263.415 63V54.2727H264.756V63H263.415ZM264.097 52.8182C263.835 52.8182 263.61 52.7292 263.42 52.5511C263.235 52.3731 263.142 52.1591 263.142 51.9091C263.142 51.6591 263.235 51.4451 263.42 51.267C263.61 51.089 263.835 51 264.097 51C264.358 51 264.581 51.089 264.767 51.267C264.956 51.4451 265.051 51.6591 265.051 51.9091C265.051 52.1591 264.956 52.3731 264.767 52.5511C264.581 52.7292 264.358 52.8182 264.097 52.8182ZM267.212 66.2727V54.2727H268.507V55.6591H268.666C268.765 55.5076 268.901 55.3144 269.075 55.0795C269.253 54.8409 269.507 54.6288 269.837 54.4432C270.17 54.2538 270.621 54.1591 271.189 54.1591C271.924 54.1591 272.571 54.3428 273.132 54.7102C273.693 55.0777 274.13 55.5985 274.445 56.2727C274.759 56.947 274.916 57.7424 274.916 58.6591C274.916 59.5833 274.759 60.3845 274.445 61.0625C274.13 61.7367 273.695 62.2595 273.138 62.6307C272.581 62.9981 271.939 63.1818 271.212 63.1818C270.651 63.1818 270.202 63.089 269.865 62.9034C269.528 62.714 269.268 62.5 269.087 62.2614C268.905 62.0189 268.765 61.8182 268.666 61.6591H268.553V66.2727H267.212ZM268.53 58.6364C268.53 59.2955 268.626 59.8769 268.82 60.3807C269.013 60.8807 269.295 61.2727 269.666 61.5568C270.037 61.8371 270.492 61.9773 271.03 61.9773C271.59 61.9773 272.058 61.8295 272.433 61.5341C272.812 61.2348 273.096 60.8333 273.286 60.3295C273.479 59.822 273.575 59.2576 273.575 58.6364C273.575 58.0227 273.481 57.4697 273.291 56.9773C273.106 56.4811 272.823 56.089 272.445 55.8011C272.07 55.5095 271.598 55.3636 271.03 55.3636C270.484 55.3636 270.026 55.5019 269.655 55.7784C269.284 56.0511 269.003 56.4337 268.814 56.9261C268.625 57.4148 268.53 57.9848 268.53 58.6364ZM280.757 54.2727V55.4091H276.234V54.2727H280.757ZM277.553 52.1818H278.893V60.5C278.893 60.8788 278.948 61.1629 279.058 61.3523C279.172 61.5379 279.316 61.6629 279.49 61.7273C279.668 61.7879 279.856 61.8182 280.053 61.8182C280.2 61.8182 280.321 61.8106 280.416 61.7955C280.511 61.7765 280.587 61.7614 280.643 61.75L280.916 62.9545C280.825 62.9886 280.698 63.0227 280.536 63.0568C280.373 63.0947 280.166 63.1136 279.916 63.1136C279.537 63.1136 279.166 63.0322 278.803 62.8693C278.443 62.7064 278.143 62.4583 277.905 62.125C277.67 61.7917 277.553 61.3712 277.553 60.8636V52.1818ZM286.226 63.1818C285.438 63.1818 284.747 62.9943 284.152 62.6193C283.561 62.2443 283.099 61.7197 282.766 61.0455C282.436 60.3712 282.271 59.5833 282.271 58.6818C282.271 57.7727 282.436 56.9792 282.766 56.3011C283.099 55.6231 283.561 55.0966 284.152 54.7216C284.747 54.3466 285.438 54.1591 286.226 54.1591C287.014 54.1591 287.703 54.3466 288.294 54.7216C288.889 55.0966 289.351 55.6231 289.68 56.3011C290.014 56.9792 290.18 57.7727 290.18 58.6818C290.18 59.5833 290.014 60.3712 289.68 61.0455C289.351 61.7197 288.889 62.2443 288.294 62.6193C287.703 62.9943 287.014 63.1818 286.226 63.1818ZM286.226 61.9773C286.824 61.9773 287.317 61.8239 287.703 61.517C288.089 61.2102 288.375 60.8068 288.561 60.3068C288.747 59.8068 288.839 59.2652 288.839 58.6818C288.839 58.0985 288.747 57.5549 288.561 57.0511C288.375 56.5473 288.089 56.1402 287.703 55.8295C287.317 55.5189 286.824 55.3636 286.226 55.3636C285.627 55.3636 285.135 55.5189 284.749 55.8295C284.362 56.1402 284.076 56.5473 283.891 57.0511C283.705 57.5549 283.612 58.0985 283.612 58.6818C283.612 59.2652 283.705 59.8068 283.891 60.3068C284.076 60.8068 284.362 61.2102 284.749 61.517C285.135 61.8239 285.627 61.9773 286.226 61.9773ZM295.75 66.4545C295.102 66.4545 294.545 66.3712 294.08 66.2045C293.614 66.0417 293.225 65.8258 292.915 65.5568C292.608 65.2917 292.364 65.0076 292.182 64.7045L293.25 63.9545C293.371 64.1136 293.525 64.2955 293.71 64.5C293.896 64.7083 294.15 64.8883 294.472 65.0398C294.797 65.1951 295.223 65.2727 295.75 65.2727C296.455 65.2727 297.036 65.1023 297.494 64.7614C297.953 64.4205 298.182 63.8864 298.182 63.1591V61.3864H298.068C297.97 61.5455 297.83 61.7424 297.648 61.9773C297.47 62.2083 297.212 62.4148 296.875 62.5966C296.542 62.7746 296.091 62.8636 295.523 62.8636C294.818 62.8636 294.186 62.697 293.625 62.3636C293.068 62.0303 292.627 61.5455 292.301 60.9091C291.979 60.2727 291.818 59.5 291.818 58.5909C291.818 57.697 291.975 56.9186 292.29 56.2557C292.604 55.589 293.042 55.0739 293.602 54.7102C294.163 54.3428 294.811 54.1591 295.545 54.1591C296.114 54.1591 296.564 54.2538 296.898 54.4432C297.235 54.6288 297.492 54.8409 297.67 55.0795C297.852 55.3144 297.992 55.5076 298.091 55.6591H298.227V54.2727H299.523V63.25C299.523 64 299.352 64.6098 299.011 65.0795C298.674 65.553 298.22 65.8996 297.648 66.1193C297.08 66.3428 296.447 66.4545 295.75 66.4545ZM295.705 61.6591C296.242 61.6591 296.697 61.536 297.068 61.2898C297.439 61.0436 297.722 60.6894 297.915 60.2273C298.108 59.7652 298.205 59.2121 298.205 58.5682C298.205 57.9394 298.11 57.3845 297.92 56.9034C297.731 56.4223 297.451 56.0455 297.08 55.7727C296.708 55.5 296.25 55.3636 295.705 55.3636C295.136 55.3636 294.663 55.5076 294.284 55.7955C293.909 56.0833 293.627 56.4697 293.438 56.9545C293.252 57.4394 293.159 57.9773 293.159 58.5682C293.159 59.1742 293.254 59.7102 293.443 60.1761C293.636 60.6383 293.92 61.0019 294.295 61.267C294.674 61.5284 295.144 61.6591 295.705 61.6591ZM301.977 63V54.2727H303.273V55.5909H303.364C303.523 55.1591 303.811 54.8087 304.227 54.5398C304.644 54.2708 305.114 54.1364 305.636 54.1364C305.735 54.1364 305.858 54.1383 306.006 54.142C306.153 54.1458 306.265 54.1515 306.341 54.1591V55.5227C306.295 55.5114 306.191 55.4943 306.028 55.4716C305.869 55.4451 305.701 55.4318 305.523 55.4318C305.098 55.4318 304.72 55.5208 304.386 55.6989C304.057 55.8731 303.795 56.1155 303.602 56.4261C303.413 56.733 303.318 57.0833 303.318 57.4773V63H301.977ZM310.499 63.2045C309.946 63.2045 309.444 63.1004 308.993 62.892C308.542 62.6799 308.184 62.375 307.919 61.9773C307.654 61.5758 307.521 61.0909 307.521 60.5227C307.521 60.0227 307.62 59.6174 307.817 59.3068C308.014 58.9924 308.277 58.7462 308.607 58.5682C308.936 58.3902 309.3 58.2576 309.697 58.1705C310.099 58.0795 310.502 58.0076 310.908 57.9545C311.438 57.8864 311.868 57.8352 312.197 57.8011C312.531 57.7633 312.773 57.7008 312.925 57.6136C313.08 57.5265 313.158 57.375 313.158 57.1591V57.1136C313.158 56.553 313.004 56.1174 312.697 55.8068C312.394 55.4962 311.934 55.3409 311.317 55.3409C310.677 55.3409 310.175 55.4811 309.811 55.7614C309.447 56.0417 309.192 56.3409 309.044 56.6591L307.771 56.2045C307.999 55.6742 308.302 55.2614 308.68 54.9659C309.063 54.6667 309.48 54.4583 309.93 54.3409C310.385 54.2197 310.832 54.1591 311.271 54.1591C311.552 54.1591 311.874 54.1932 312.237 54.2614C312.605 54.3258 312.959 54.4602 313.3 54.6648C313.644 54.8693 313.93 55.178 314.158 55.5909C314.385 56.0038 314.499 56.5568 314.499 57.25V63H313.158V61.8182H313.089C312.999 62.0076 312.847 62.2102 312.635 62.4261C312.423 62.642 312.141 62.8258 311.788 62.9773C311.436 63.1288 311.006 63.2045 310.499 63.2045ZM310.703 62C311.233 62 311.68 61.8958 312.044 61.6875C312.411 61.4792 312.688 61.2102 312.874 60.8807C313.063 60.5511 313.158 60.2045 313.158 59.8409V58.6136C313.101 58.6818 312.976 58.7443 312.783 58.8011C312.593 58.8542 312.374 58.9015 312.124 58.9432C311.877 58.9811 311.637 59.0152 311.402 59.0455C311.171 59.072 310.983 59.0947 310.839 59.1136C310.491 59.1591 310.165 59.233 309.862 59.3352C309.563 59.4337 309.321 59.5833 309.135 59.7841C308.953 59.9811 308.862 60.25 308.862 60.5909C308.862 61.0568 309.035 61.4091 309.379 61.6477C309.728 61.8826 310.169 62 310.703 62ZM320.832 54.2727V55.4091H316.128V54.2727H320.832ZM317.537 63V53.0682C317.537 52.5682 317.654 52.1515 317.889 51.8182C318.124 51.4848 318.429 51.2348 318.804 51.0682C319.179 50.9015 319.575 50.8182 319.991 50.8182C320.321 50.8182 320.59 50.8447 320.798 50.8977C321.007 50.9508 321.162 51 321.264 51.0455L320.878 52.2045C320.81 52.1818 320.715 52.1534 320.594 52.1193C320.476 52.0852 320.321 52.0682 320.128 52.0682C319.685 52.0682 319.365 52.1799 319.168 52.4034C318.974 52.6269 318.878 52.9545 318.878 53.3864V63H317.537ZM325.03 63.2045C324.477 63.2045 323.975 63.1004 323.524 62.892C323.073 62.6799 322.715 62.375 322.45 61.9773C322.185 61.5758 322.053 61.0909 322.053 60.5227C322.053 60.0227 322.151 59.6174 322.348 59.3068C322.545 58.9924 322.808 58.7462 323.138 58.5682C323.467 58.3902 323.831 58.2576 324.229 58.1705C324.63 58.0795 325.034 58.0076 325.439 57.9545C325.969 57.8864 326.399 57.8352 326.729 57.8011C327.062 57.7633 327.304 57.7008 327.456 57.6136C327.611 57.5265 327.689 57.375 327.689 57.1591V57.1136C327.689 56.553 327.536 56.1174 327.229 55.8068C326.926 55.4962 326.465 55.3409 325.848 55.3409C325.208 55.3409 324.706 55.4811 324.342 55.7614C323.979 56.0417 323.723 56.3409 323.575 56.6591L322.303 56.2045C322.53 55.6742 322.833 55.2614 323.212 54.9659C323.594 54.6667 324.011 54.4583 324.462 54.3409C324.916 54.2197 325.363 54.1591 325.803 54.1591C326.083 54.1591 326.405 54.1932 326.768 54.2614C327.136 54.3258 327.49 54.4602 327.831 54.6648C328.176 54.8693 328.462 55.178 328.689 55.5909C328.916 56.0038 329.03 56.5568 329.03 57.25V63H327.689V61.8182H327.621C327.53 62.0076 327.378 62.2102 327.166 62.4261C326.954 62.642 326.672 62.8258 326.32 62.9773C325.967 63.1288 325.537 63.2045 325.03 63.2045ZM325.234 62C325.765 62 326.212 61.8958 326.575 61.6875C326.943 61.4792 327.219 61.2102 327.405 60.8807C327.594 60.5511 327.689 60.2045 327.689 59.8409V58.6136C327.632 58.6818 327.507 58.7443 327.314 58.8011C327.125 58.8542 326.905 58.9015 326.655 58.9432C326.409 58.9811 326.168 59.0152 325.933 59.0455C325.702 59.072 325.515 59.0947 325.371 59.1136C325.022 59.1591 324.696 59.233 324.393 59.3352C324.094 59.4337 323.852 59.5833 323.666 59.7841C323.484 59.9811 323.393 60.25 323.393 60.5909C323.393 61.0568 323.566 61.4091 323.911 61.6477C324.259 61.8826 324.7 62 325.234 62ZM331.477 63V54.2727H332.773V55.5909H332.864C333.023 55.1591 333.311 54.8087 333.727 54.5398C334.144 54.2708 334.614 54.1364 335.136 54.1364C335.235 54.1364 335.358 54.1383 335.506 54.142C335.653 54.1458 335.765 54.1515 335.841 54.1591V55.5227C335.795 55.5114 335.691 55.4943 335.528 55.4716C335.369 55.4451 335.201 55.4318 335.023 55.4318C334.598 55.4318 334.22 55.5208 333.886 55.6989C333.557 55.8731 333.295 56.1155 333.102 56.4261C332.913 56.733 332.818 57.0833 332.818 57.4773V63H331.477ZM345.476 63.1818C344.688 63.1818 343.997 62.9943 343.402 62.6193C342.811 62.2443 342.349 61.7197 342.016 61.0455C341.686 60.3712 341.521 59.5833 341.521 58.6818C341.521 57.7727 341.686 56.9792 342.016 56.3011C342.349 55.6231 342.811 55.0966 343.402 54.7216C343.997 54.3466 344.688 54.1591 345.476 54.1591C346.264 54.1591 346.953 54.3466 347.544 54.7216C348.139 55.0966 348.601 55.6231 348.93 56.3011C349.264 56.9792 349.43 57.7727 349.43 58.6818C349.43 59.5833 349.264 60.3712 348.93 61.0455C348.601 61.7197 348.139 62.2443 347.544 62.6193C346.953 62.9943 346.264 63.1818 345.476 63.1818ZM345.476 61.9773C346.074 61.9773 346.567 61.8239 346.953 61.517C347.339 61.2102 347.625 60.8068 347.811 60.3068C347.997 59.8068 348.089 59.2652 348.089 58.6818C348.089 58.0985 347.997 57.5549 347.811 57.0511C347.625 56.5473 347.339 56.1402 346.953 55.8295C346.567 55.5189 346.074 55.3636 345.476 55.3636C344.877 55.3636 344.385 55.5189 343.999 55.8295C343.612 56.1402 343.326 56.5473 343.141 57.0511C342.955 57.5549 342.862 58.0985 342.862 58.6818C342.862 59.2652 342.955 59.8068 343.141 60.3068C343.326 60.8068 343.612 61.2102 343.999 61.517C344.385 61.8239 344.877 61.9773 345.476 61.9773ZM356.977 59.4318V54.2727H358.318V63H356.977V61.5227H356.886C356.682 61.9659 356.364 62.3428 355.932 62.6534C355.5 62.9602 354.955 63.1136 354.295 63.1136C353.75 63.1136 353.265 62.9943 352.841 62.7557C352.417 62.5133 352.083 62.1496 351.841 61.6648C351.598 61.1761 351.477 60.5606 351.477 59.8182V54.2727H352.818V59.7273C352.818 60.3636 352.996 60.8712 353.352 61.25C353.712 61.6288 354.17 61.8182 354.727 61.8182C355.061 61.8182 355.4 61.733 355.744 61.5625C356.093 61.392 356.384 61.1307 356.619 60.7784C356.858 60.4261 356.977 59.9773 356.977 59.4318ZM368.57 63.1818C367.842 63.1818 367.2 62.9981 366.643 62.6307C366.087 62.2595 365.651 61.7367 365.337 61.0625C365.022 60.3845 364.865 59.5833 364.865 58.6591C364.865 57.7424 365.022 56.947 365.337 56.2727C365.651 55.5985 366.089 55.0777 366.649 54.7102C367.21 54.3428 367.857 54.1591 368.592 54.1591C369.161 54.1591 369.609 54.2538 369.939 54.4432C370.272 54.6288 370.526 54.8409 370.7 55.0795C370.878 55.3144 371.017 55.5076 371.115 55.6591H371.229V51.3636H372.57V63H371.274V61.6591H371.115C371.017 61.8182 370.876 62.0189 370.695 62.2614C370.513 62.5 370.253 62.714 369.916 62.9034C369.579 63.089 369.13 63.1818 368.57 63.1818ZM368.751 61.9773C369.289 61.9773 369.744 61.8371 370.115 61.5568C370.486 61.2727 370.768 60.8807 370.962 60.3807C371.155 59.8769 371.251 59.2955 371.251 58.6364C371.251 57.9848 371.157 57.4148 370.967 56.9261C370.778 56.4337 370.498 56.0511 370.126 55.7784C369.755 55.5019 369.297 55.3636 368.751 55.3636C368.183 55.3636 367.71 55.5095 367.331 55.8011C366.956 56.089 366.674 56.4811 366.484 56.9773C366.299 57.4697 366.206 58.0227 366.206 58.6364C366.206 59.2576 366.301 59.822 366.49 60.3295C366.683 60.8333 366.967 61.2348 367.342 61.5341C367.721 61.8295 368.191 61.9773 368.751 61.9773ZM378.871 63.1818C378.03 63.1818 377.304 62.9962 376.695 62.625C376.089 62.25 375.621 61.7273 375.291 61.0568C374.965 60.3826 374.803 59.5985 374.803 58.7045C374.803 57.8106 374.965 57.0227 375.291 56.3409C375.621 55.6553 376.079 55.1212 376.666 54.7386C377.257 54.3523 377.946 54.1591 378.734 54.1591C379.189 54.1591 379.638 54.2348 380.081 54.3864C380.524 54.5379 380.928 54.7841 381.291 55.125C381.655 55.4621 381.945 55.9091 382.161 56.4659C382.376 57.0227 382.484 57.7083 382.484 58.5227V59.0909H375.757V57.9318H381.121C381.121 57.4394 381.022 57 380.825 56.6136C380.632 56.2273 380.356 55.9223 379.996 55.6989C379.64 55.4754 379.219 55.3636 378.734 55.3636C378.2 55.3636 377.738 55.4962 377.348 55.7614C376.962 56.0227 376.664 56.3636 376.456 56.7841C376.248 57.2045 376.143 57.6553 376.143 58.1364V58.9091C376.143 59.5682 376.257 60.1269 376.484 60.5852C376.715 61.0398 377.036 61.3864 377.445 61.625C377.854 61.8598 378.329 61.9773 378.871 61.9773C379.223 61.9773 379.541 61.928 379.825 61.8295C380.113 61.7273 380.361 61.5758 380.57 61.375C380.778 61.1705 380.939 60.9167 381.053 60.6136L382.348 60.9773C382.212 61.4167 381.982 61.803 381.661 62.1364C381.339 62.4659 380.941 62.7235 380.467 62.9091C379.994 63.0909 379.462 63.1818 378.871 63.1818ZM390.706 56.2273L389.501 56.5682C389.426 56.3674 389.314 56.1723 389.166 55.983C389.022 55.7898 388.825 55.6307 388.575 55.5057C388.325 55.3807 388.005 55.3182 387.615 55.3182C387.081 55.3182 386.636 55.4413 386.28 55.6875C385.928 55.9299 385.751 56.2386 385.751 56.6136C385.751 56.947 385.873 57.2102 386.115 57.4034C386.357 57.5966 386.736 57.7576 387.251 57.8864L388.547 58.2045C389.327 58.3939 389.909 58.6837 390.291 59.0739C390.674 59.4602 390.865 59.9583 390.865 60.5682C390.865 61.0682 390.721 61.5152 390.433 61.9091C390.149 62.303 389.751 62.6136 389.24 62.8409C388.729 63.0682 388.134 63.1818 387.456 63.1818C386.566 63.1818 385.829 62.9886 385.246 62.6023C384.662 62.2159 384.293 61.6515 384.138 60.9091L385.411 60.5909C385.532 61.0606 385.761 61.4129 386.098 61.6477C386.439 61.8826 386.884 62 387.433 62C388.058 62 388.554 61.8674 388.922 61.6023C389.293 61.3333 389.479 61.0114 389.479 60.6364C389.479 60.3333 389.373 60.0795 389.161 59.875C388.948 59.6667 388.623 59.5114 388.183 59.4091L386.729 59.0682C385.929 58.8788 385.342 58.5852 384.967 58.1875C384.596 57.786 384.411 57.2841 384.411 56.6818C384.411 56.1894 384.549 55.7538 384.825 55.375C385.106 54.9962 385.486 54.6989 385.967 54.483C386.452 54.267 387.001 54.1591 387.615 54.1591C388.479 54.1591 389.157 54.3485 389.649 54.7273C390.145 55.1061 390.498 55.6061 390.706 56.2273ZM396.429 63.1818C395.611 63.1818 394.906 62.9886 394.315 62.6023C393.724 62.2159 393.27 61.6837 392.952 61.0057C392.634 60.3277 392.474 59.553 392.474 58.6818C392.474 57.7955 392.637 57.0133 392.963 56.3352C393.293 55.6534 393.751 55.1212 394.338 54.7386C394.929 54.3523 395.618 54.1591 396.406 54.1591C397.02 54.1591 397.573 54.2727 398.065 54.5C398.558 54.7273 398.961 55.0455 399.276 55.4545C399.59 55.8636 399.785 56.3409 399.861 56.8864H398.52C398.418 56.4886 398.19 56.1364 397.838 55.8295C397.49 55.5189 397.02 55.3636 396.429 55.3636C395.906 55.3636 395.448 55.5 395.054 55.7727C394.664 56.0417 394.359 56.4223 394.139 56.9148C393.923 57.4034 393.815 57.9773 393.815 58.6364C393.815 59.3106 393.921 59.8977 394.134 60.3977C394.349 60.8977 394.652 61.286 395.043 61.5625C395.437 61.839 395.899 61.9773 396.429 61.9773C396.777 61.9773 397.094 61.9167 397.378 61.7955C397.662 61.6742 397.902 61.5 398.099 61.2727C398.296 61.0455 398.437 60.7727 398.52 60.4545H399.861C399.785 60.9697 399.598 61.4337 399.298 61.8466C399.003 62.2557 398.611 62.5814 398.122 62.8239C397.637 63.0625 397.073 63.1818 396.429 63.1818ZM401.821 63V54.2727H403.116V55.5909H403.207C403.366 55.1591 403.654 54.8087 404.071 54.5398C404.488 54.2708 404.957 54.1364 405.48 54.1364C405.579 54.1364 405.702 54.1383 405.849 54.142C405.997 54.1458 406.109 54.1515 406.185 54.1591V55.5227C406.139 55.5114 406.035 55.4943 405.872 55.4716C405.713 55.4451 405.545 55.4318 405.366 55.4318C404.942 55.4318 404.563 55.5208 404.23 55.6989C403.901 55.8731 403.639 56.1155 403.446 56.4261C403.257 56.733 403.162 57.0833 403.162 57.4773V63H401.821ZM407.774 63V54.2727H409.115V63H407.774ZM408.456 52.8182C408.195 52.8182 407.969 52.7292 407.78 52.5511C407.594 52.3731 407.501 52.1591 407.501 51.9091C407.501 51.6591 407.594 51.4451 407.78 51.267C407.969 51.089 408.195 51 408.456 51C408.717 51 408.941 51.089 409.126 51.267C409.316 51.4451 409.411 51.6591 409.411 51.9091C409.411 52.1591 409.316 52.3731 409.126 52.5511C408.941 52.7292 408.717 52.8182 408.456 52.8182ZM411.571 66.2727V54.2727H412.866V55.6591H413.026C413.124 55.5076 413.26 55.3144 413.435 55.0795C413.613 54.8409 413.866 54.6288 414.196 54.4432C414.529 54.2538 414.98 54.1591 415.548 54.1591C416.283 54.1591 416.931 54.3428 417.491 54.7102C418.052 55.0777 418.49 55.5985 418.804 56.2727C419.118 56.947 419.276 57.7424 419.276 58.6591C419.276 59.5833 419.118 60.3845 418.804 61.0625C418.49 61.7367 418.054 62.2595 417.497 62.6307C416.94 62.9981 416.298 63.1818 415.571 63.1818C415.01 63.1818 414.562 63.089 414.224 62.9034C413.887 62.714 413.628 62.5 413.446 62.2614C413.264 62.0189 413.124 61.8182 413.026 61.6591H412.912V66.2727H411.571ZM412.889 58.6364C412.889 59.2955 412.986 59.8769 413.179 60.3807C413.372 60.8807 413.654 61.2727 414.026 61.5568C414.397 61.8371 414.851 61.9773 415.389 61.9773C415.95 61.9773 416.418 61.8295 416.793 61.5341C417.171 61.2348 417.455 60.8333 417.645 60.3295C417.838 59.822 417.935 59.2576 417.935 58.6364C417.935 58.0227 417.84 57.4697 417.651 56.9773C417.465 56.4811 417.183 56.089 416.804 55.8011C416.429 55.5095 415.957 55.3636 415.389 55.3636C414.844 55.3636 414.385 55.5019 414.014 55.7784C413.643 56.0511 413.363 56.4337 413.173 56.9261C412.984 57.4148 412.889 57.9848 412.889 58.6364ZM425.116 54.2727V55.4091H420.594V54.2727H425.116ZM421.912 52.1818H423.253V60.5C423.253 60.8788 423.308 61.1629 423.418 61.3523C423.531 61.5379 423.675 61.6629 423.849 61.7273C424.027 61.7879 424.215 61.8182 424.412 61.8182C424.56 61.8182 424.681 61.8106 424.776 61.7955C424.87 61.7765 424.946 61.7614 425.003 61.75L425.276 62.9545C425.185 62.9886 425.058 63.0227 424.895 63.0568C424.732 63.0947 424.526 63.1136 424.276 63.1136C423.897 63.1136 423.526 63.0322 423.162 62.8693C422.802 62.7064 422.503 62.4583 422.264 62.125C422.029 61.7917 421.912 61.3712 421.912 60.8636V52.1818ZM430.585 63.1818C429.797 63.1818 429.106 62.9943 428.511 62.6193C427.92 62.2443 427.458 61.7197 427.125 61.0455C426.795 60.3712 426.631 59.5833 426.631 58.6818C426.631 57.7727 426.795 56.9792 427.125 56.3011C427.458 55.6231 427.92 55.0966 428.511 54.7216C429.106 54.3466 429.797 54.1591 430.585 54.1591C431.373 54.1591 432.063 54.3466 432.653 54.7216C433.248 55.0966 433.71 55.6231 434.04 56.3011C434.373 56.9792 434.54 57.7727 434.54 58.6818C434.54 59.5833 434.373 60.3712 434.04 61.0455C433.71 61.7197 433.248 62.2443 432.653 62.6193C432.063 62.9943 431.373 63.1818 430.585 63.1818ZM430.585 61.9773C431.184 61.9773 431.676 61.8239 432.062 61.517C432.449 61.2102 432.735 60.8068 432.92 60.3068C433.106 59.8068 433.199 59.2652 433.199 58.6818C433.199 58.0985 433.106 57.5549 432.92 57.0511C432.735 56.5473 432.449 56.1402 432.062 55.8295C431.676 55.5189 431.184 55.3636 430.585 55.3636C429.987 55.3636 429.494 55.5189 429.108 55.8295C428.722 56.1402 428.436 56.5473 428.25 57.0511C428.064 57.5549 427.972 58.0985 427.972 58.6818C427.972 59.2652 428.064 59.8068 428.25 60.3068C428.436 60.8068 428.722 61.2102 429.108 61.517C429.494 61.8239 429.987 61.9773 430.585 61.9773ZM440.109 66.4545C439.462 66.4545 438.905 66.3712 438.439 66.2045C437.973 66.0417 437.585 65.8258 437.274 65.5568C436.967 65.2917 436.723 65.0076 436.541 64.7045L437.609 63.9545C437.731 64.1136 437.884 64.2955 438.07 64.5C438.255 64.7083 438.509 64.8883 438.831 65.0398C439.157 65.1951 439.583 65.2727 440.109 65.2727C440.814 65.2727 441.395 65.1023 441.854 64.7614C442.312 64.4205 442.541 63.8864 442.541 63.1591V61.3864H442.428C442.329 61.5455 442.189 61.7424 442.007 61.9773C441.829 62.2083 441.571 62.4148 441.234 62.5966C440.901 62.7746 440.45 62.8636 439.882 62.8636C439.178 62.8636 438.545 62.697 437.984 62.3636C437.428 62.0303 436.986 61.5455 436.661 60.9091C436.339 60.2727 436.178 59.5 436.178 58.5909C436.178 57.697 436.335 56.9186 436.649 56.2557C436.964 55.589 437.401 55.0739 437.962 54.7102C438.522 54.3428 439.17 54.1591 439.905 54.1591C440.473 54.1591 440.924 54.2538 441.257 54.4432C441.594 54.6288 441.852 54.8409 442.03 55.0795C442.212 55.3144 442.352 55.5076 442.45 55.6591H442.587V54.2727H443.882V63.25C443.882 64 443.712 64.6098 443.371 65.0795C443.034 65.553 442.579 65.8996 442.007 66.1193C441.439 66.3428 440.806 66.4545 440.109 66.4545ZM440.064 61.6591C440.602 61.6591 441.056 61.536 441.428 61.2898C441.799 61.0436 442.081 60.6894 442.274 60.2273C442.467 59.7652 442.564 59.2121 442.564 58.5682C442.564 57.9394 442.469 57.3845 442.28 56.9034C442.09 56.4223 441.81 56.0455 441.439 55.7727C441.068 55.5 440.609 55.3636 440.064 55.3636C439.496 55.3636 439.022 55.5076 438.643 55.7955C438.268 56.0833 437.986 56.4697 437.797 56.9545C437.611 57.4394 437.518 57.9773 437.518 58.5682C437.518 59.1742 437.613 59.7102 437.803 60.1761C437.996 60.6383 438.28 61.0019 438.655 61.267C439.034 61.5284 439.503 61.6591 440.064 61.6591ZM446.337 63V54.2727H447.632V55.5909H447.723C447.882 55.1591 448.17 54.8087 448.587 54.5398C449.003 54.2708 449.473 54.1364 449.996 54.1364C450.094 54.1364 450.217 54.1383 450.365 54.142C450.513 54.1458 450.625 54.1515 450.7 54.1591V55.5227C450.655 55.5114 450.551 55.4943 450.388 55.4716C450.229 55.4451 450.06 55.4318 449.882 55.4318C449.458 55.4318 449.079 55.5208 448.746 55.6989C448.416 55.8731 448.155 56.1155 447.962 56.4261C447.772 56.733 447.678 57.0833 447.678 57.4773V63H446.337ZM454.858 63.2045C454.305 63.2045 453.803 63.1004 453.352 62.892C452.902 62.6799 452.544 62.375 452.278 61.9773C452.013 61.5758 451.881 61.0909 451.881 60.5227C451.881 60.0227 451.979 59.6174 452.176 59.3068C452.373 58.9924 452.636 58.7462 452.966 58.5682C453.295 58.3902 453.659 58.2576 454.057 58.1705C454.458 58.0795 454.862 58.0076 455.267 57.9545C455.797 57.8864 456.227 57.8352 456.557 57.8011C456.89 57.7633 457.133 57.7008 457.284 57.6136C457.439 57.5265 457.517 57.375 457.517 57.1591V57.1136C457.517 56.553 457.364 56.1174 457.057 55.8068C456.754 55.4962 456.294 55.3409 455.676 55.3409C455.036 55.3409 454.534 55.4811 454.17 55.7614C453.807 56.0417 453.551 56.3409 453.403 56.6591L452.131 56.2045C452.358 55.6742 452.661 55.2614 453.04 54.9659C453.422 54.6667 453.839 54.4583 454.29 54.3409C454.744 54.2197 455.191 54.1591 455.631 54.1591C455.911 54.1591 456.233 54.1932 456.597 54.2614C456.964 54.3258 457.318 54.4602 457.659 54.6648C458.004 54.8693 458.29 55.178 458.517 55.5909C458.744 56.0038 458.858 56.5568 458.858 57.25V63H457.517V61.8182H457.449C457.358 62.0076 457.206 62.2102 456.994 62.4261C456.782 62.642 456.5 62.8258 456.148 62.9773C455.795 63.1288 455.366 63.2045 454.858 63.2045ZM455.062 62C455.593 62 456.04 61.8958 456.403 61.6875C456.771 61.4792 457.047 61.2102 457.233 60.8807C457.422 60.5511 457.517 60.2045 457.517 59.8409V58.6136C457.46 58.6818 457.335 58.7443 457.142 58.8011C456.953 58.8542 456.733 58.9015 456.483 58.9432C456.237 58.9811 455.996 59.0152 455.761 59.0455C455.53 59.072 455.343 59.0947 455.199 59.1136C454.85 59.1591 454.525 59.233 454.222 59.3352C453.922 59.4337 453.68 59.5833 453.494 59.7841C453.313 59.9811 453.222 60.25 453.222 60.5909C453.222 61.0568 453.394 61.4091 453.739 61.6477C454.087 61.8826 454.528 62 455.062 62ZM465.192 54.2727V55.4091H460.487V54.2727H465.192ZM461.896 63V53.0682C461.896 52.5682 462.014 52.1515 462.249 51.8182C462.483 51.4848 462.788 51.2348 463.163 51.0682C463.538 50.9015 463.934 50.8182 464.351 50.8182C464.68 50.8182 464.949 50.8447 465.158 50.8977C465.366 50.9508 465.521 51 465.624 51.0455L465.237 52.2045C465.169 52.1818 465.074 52.1534 464.953 52.1193C464.836 52.0852 464.68 52.0682 464.487 52.0682C464.044 52.0682 463.724 52.1799 463.527 52.4034C463.334 52.6269 463.237 52.9545 463.237 53.3864V63H461.896ZM469.389 63.2045C468.836 63.2045 468.334 63.1004 467.884 62.892C467.433 62.6799 467.075 62.375 466.81 61.9773C466.545 61.5758 466.412 61.0909 466.412 60.5227C466.412 60.0227 466.51 59.6174 466.707 59.3068C466.904 58.9924 467.168 58.7462 467.497 58.5682C467.827 58.3902 468.19 58.2576 468.588 58.1705C468.99 58.0795 469.393 58.0076 469.798 57.9545C470.329 57.8864 470.759 57.8352 471.088 57.8011C471.421 57.7633 471.664 57.7008 471.815 57.6136C471.971 57.5265 472.048 57.375 472.048 57.1591V57.1136C472.048 56.553 471.895 56.1174 471.588 55.8068C471.285 55.4962 470.825 55.3409 470.207 55.3409C469.567 55.3409 469.065 55.4811 468.702 55.7614C468.338 56.0417 468.082 56.3409 467.935 56.6591L466.662 56.2045C466.889 55.6742 467.192 55.2614 467.571 54.9659C467.954 54.6667 468.37 54.4583 468.821 54.3409C469.276 54.2197 469.723 54.1591 470.162 54.1591C470.442 54.1591 470.764 54.1932 471.128 54.2614C471.495 54.3258 471.849 54.4602 472.19 54.6648C472.535 54.8693 472.821 55.178 473.048 55.5909C473.276 56.0038 473.389 56.5568 473.389 57.25V63H472.048V61.8182H471.98C471.889 62.0076 471.738 62.2102 471.526 62.4261C471.313 62.642 471.031 62.8258 470.679 62.9773C470.327 63.1288 469.897 63.2045 469.389 63.2045ZM469.594 62C470.124 62 470.571 61.8958 470.935 61.6875C471.302 61.4792 471.579 61.2102 471.764 60.8807C471.954 60.5511 472.048 60.2045 472.048 59.8409V58.6136C471.991 58.6818 471.866 58.7443 471.673 58.8011C471.484 58.8542 471.264 58.9015 471.014 58.9432C470.768 58.9811 470.527 59.0152 470.293 59.0455C470.062 59.072 469.874 59.0947 469.73 59.1136C469.382 59.1591 469.056 59.233 468.753 59.3352C468.454 59.4337 468.211 59.5833 468.026 59.7841C467.844 59.9811 467.753 60.25 467.753 60.5909C467.753 61.0568 467.925 61.4091 468.27 61.6477C468.618 61.8826 469.06 62 469.594 62ZM475.837 63V54.2727H477.132V55.5909H477.223C477.382 55.1591 477.67 54.8087 478.087 54.5398C478.503 54.2708 478.973 54.1364 479.496 54.1364C479.594 54.1364 479.717 54.1383 479.865 54.142C480.013 54.1458 480.125 54.1515 480.2 54.1591V55.5227C480.155 55.5114 480.051 55.4943 479.888 55.4716C479.729 55.4451 479.56 55.4318 479.382 55.4318C478.958 55.4318 478.579 55.5208 478.246 55.6989C477.916 55.8731 477.655 56.1155 477.462 56.4261C477.272 56.733 477.178 57.0833 477.178 57.4773V63H475.837ZM481.767 63.0909C481.487 63.0909 481.246 62.9905 481.045 62.7898C480.845 62.589 480.744 62.3485 480.744 62.0682C480.744 61.7879 480.845 61.5473 481.045 61.3466C481.246 61.1458 481.487 61.0455 481.767 61.0455C482.047 61.0455 482.288 61.1458 482.489 61.3466C482.689 61.5473 482.79 61.7879 482.79 62.0682C482.79 62.2538 482.742 62.4242 482.648 62.5795C482.557 62.7348 482.434 62.8598 482.278 62.9545C482.127 63.0455 481.956 63.0909 481.767 63.0909Z" fill="#495057"/>
</svg>
